<?xml version="1.0" encoding="utf-8" standalone="no"?>
<!DOCTYPE svg PUBLIC "-//W3C//DTD SVG 1.1//EN"
  "http://www.w3.org/Graphics/SVG/1.1/DTD/svg11.dtd">
<svg xmlns:xlink="http://www.w3.org/1999/xlink" width="656.39952pt" height="368.39952pt" viewBox="0 0 656.39952 368.39952" xmlns="http://www.w3.org/2000/svg" version="1.1">
 <metadata>
  <rdf:RDF xmlns:dc="http://purl.org/dc/elements/1.1/" xmlns:cc="http://creativecommons.org/ns#" xmlns:rdf="http://www.w3.org/1999/02/22-rdf-syntax-ns#">
   <cc:Work>
    <dc:type rdf:resource="http://purl.org/dc/dcmitype/StillImage"/>
    <dc:date>2022-12-26T17:34:21.989814</dc:date>
    <dc:format>image/svg+xml</dc:format>
    <dc:creator>
     <cc:Agent>
      <dc:title>Matplotlib v3.5.3, https://matplotlib.org/</dc:title>
     </cc:Agent>
    </dc:creator>
   </cc:Work>
  </rdf:RDF>
 </metadata>
 <defs>
  <style type="text/css">*{stroke-linejoin: round; stroke-linecap: butt}</style>
 </defs>
 <g id="figure_1">
  <g id="patch_1">
   <path d="M 0 368.39952 
L 656.39952 368.39952 
L 656.39952 0 
L 0 0 
z
" style="fill: #ffffff"/>
  </g>
  <g id="axes_1">
   <g id="patch_2">
    <path d="M 46.965625 330.84327 
L 649.19952 330.84327 
L 649.19952 22.318125 
L 46.965625 22.318125 
z
" style="fill: #ffffff"/>
   </g>
   <g id="matplotlib.axis_1">
    <g id="xtick_1">
     <g id="line2d_1">
      <path d="M 74.339893 330.84327 
L 74.339893 22.318125 
" clip-path="url(#p021853ea00)" style="fill: none; stroke-dasharray: 1.85,0.8; stroke-dashoffset: 0; stroke: #c0c0c0; stroke-width: 0.5"/>
     </g>
     <g id="line2d_2">
      <defs>
       <path id="meff545bb6b" d="M 0 0 
L 0 3.5 
" style="stroke: #000000; stroke-width: 0.8"/>
      </defs>
      <g>
       <use xlink:href="#meff545bb6b" x="74.339893" y="330.84327" style="stroke: #000000; stroke-width: 0.8"/>
      </g>
     </g>
     <g id="text_1">
      <!-- 0.001 -->
      <g transform="translate(60.02583 345.441707)scale(0.1 -0.1)">
       <defs>
        <path id="DejaVuSans-30" d="M 2034 4250 
Q 1547 4250 1301 3770 
Q 1056 3291 1056 2328 
Q 1056 1369 1301 889 
Q 1547 409 2034 409 
Q 2525 409 2770 889 
Q 3016 1369 3016 2328 
Q 3016 3291 2770 3770 
Q 2525 4250 2034 4250 
z
M 2034 4750 
Q 2819 4750 3233 4129 
Q 3647 3509 3647 2328 
Q 3647 1150 3233 529 
Q 2819 -91 2034 -91 
Q 1250 -91 836 529 
Q 422 1150 422 2328 
Q 422 3509 836 4129 
Q 1250 4750 2034 4750 
z
" transform="scale(0.015625)"/>
        <path id="DejaVuSans-2e" d="M 684 794 
L 1344 794 
L 1344 0 
L 684 0 
L 684 794 
z
" transform="scale(0.015625)"/>
        <path id="DejaVuSans-31" d="M 794 531 
L 1825 531 
L 1825 4091 
L 703 3866 
L 703 4441 
L 1819 4666 
L 2450 4666 
L 2450 531 
L 3481 531 
L 3481 0 
L 794 0 
L 794 531 
z
" transform="scale(0.015625)"/>
       </defs>
       <use xlink:href="#DejaVuSans-30"/>
       <use xlink:href="#DejaVuSans-2e" x="63.623047"/>
       <use xlink:href="#DejaVuSans-30" x="95.410156"/>
       <use xlink:href="#DejaVuSans-30" x="159.033203"/>
       <use xlink:href="#DejaVuSans-31" x="222.65625"/>
      </g>
     </g>
    </g>
    <g id="xtick_2">
     <g id="line2d_3">
      <path d="M 129.641444 330.84327 
L 129.641444 22.318125 
" clip-path="url(#p021853ea00)" style="fill: none; stroke-dasharray: 1.85,0.8; stroke-dashoffset: 0; stroke: #c0c0c0; stroke-width: 0.5"/>
     </g>
     <g id="line2d_4">
      <g>
       <use xlink:href="#meff545bb6b" x="129.641444" y="330.84327" style="stroke: #000000; stroke-width: 0.8"/>
      </g>
     </g>
     <g id="text_2">
      <!-- 0.011 -->
      <g transform="translate(115.327382 345.441707)scale(0.1 -0.1)">
       <use xlink:href="#DejaVuSans-30"/>
       <use xlink:href="#DejaVuSans-2e" x="63.623047"/>
       <use xlink:href="#DejaVuSans-30" x="95.410156"/>
       <use xlink:href="#DejaVuSans-31" x="159.033203"/>
       <use xlink:href="#DejaVuSans-31" x="222.65625"/>
      </g>
     </g>
    </g>
    <g id="xtick_3">
     <g id="line2d_5">
      <path d="M 184.942996 330.84327 
L 184.942996 22.318125 
" clip-path="url(#p021853ea00)" style="fill: none; stroke-dasharray: 1.85,0.8; stroke-dashoffset: 0; stroke: #c0c0c0; stroke-width: 0.5"/>
     </g>
     <g id="line2d_6">
      <g>
       <use xlink:href="#meff545bb6b" x="184.942996" y="330.84327" style="stroke: #000000; stroke-width: 0.8"/>
      </g>
     </g>
     <g id="text_3">
      <!-- 0.021 -->
      <g transform="translate(170.628933 345.441707)scale(0.1 -0.1)">
       <defs>
        <path id="DejaVuSans-32" d="M 1228 531 
L 3431 531 
L 3431 0 
L 469 0 
L 469 531 
Q 828 903 1448 1529 
Q 2069 2156 2228 2338 
Q 2531 2678 2651 2914 
Q 2772 3150 2772 3378 
Q 2772 3750 2511 3984 
Q 2250 4219 1831 4219 
Q 1534 4219 1204 4116 
Q 875 4013 500 3803 
L 500 4441 
Q 881 4594 1212 4672 
Q 1544 4750 1819 4750 
Q 2544 4750 2975 4387 
Q 3406 4025 3406 3419 
Q 3406 3131 3298 2873 
Q 3191 2616 2906 2266 
Q 2828 2175 2409 1742 
Q 1991 1309 1228 531 
z
" transform="scale(0.015625)"/>
       </defs>
       <use xlink:href="#DejaVuSans-30"/>
       <use xlink:href="#DejaVuSans-2e" x="63.623047"/>
       <use xlink:href="#DejaVuSans-30" x="95.410156"/>
       <use xlink:href="#DejaVuSans-32" x="159.033203"/>
       <use xlink:href="#DejaVuSans-31" x="222.65625"/>
      </g>
     </g>
    </g>
    <g id="xtick_4">
     <g id="line2d_7">
      <path d="M 240.244547 330.84327 
L 240.244547 22.318125 
" clip-path="url(#p021853ea00)" style="fill: none; stroke-dasharray: 1.85,0.8; stroke-dashoffset: 0; stroke: #c0c0c0; stroke-width: 0.5"/>
     </g>
     <g id="line2d_8">
      <g>
       <use xlink:href="#meff545bb6b" x="240.244547" y="330.84327" style="stroke: #000000; stroke-width: 0.8"/>
      </g>
     </g>
     <g id="text_4">
      <!-- 0.031 -->
      <g transform="translate(225.930485 345.441707)scale(0.1 -0.1)">
       <defs>
        <path id="DejaVuSans-33" d="M 2597 2516 
Q 3050 2419 3304 2112 
Q 3559 1806 3559 1356 
Q 3559 666 3084 287 
Q 2609 -91 1734 -91 
Q 1441 -91 1130 -33 
Q 819 25 488 141 
L 488 750 
Q 750 597 1062 519 
Q 1375 441 1716 441 
Q 2309 441 2620 675 
Q 2931 909 2931 1356 
Q 2931 1769 2642 2001 
Q 2353 2234 1838 2234 
L 1294 2234 
L 1294 2753 
L 1863 2753 
Q 2328 2753 2575 2939 
Q 2822 3125 2822 3475 
Q 2822 3834 2567 4026 
Q 2313 4219 1838 4219 
Q 1578 4219 1281 4162 
Q 984 4106 628 3988 
L 628 4550 
Q 988 4650 1302 4700 
Q 1616 4750 1894 4750 
Q 2613 4750 3031 4423 
Q 3450 4097 3450 3541 
Q 3450 3153 3228 2886 
Q 3006 2619 2597 2516 
z
" transform="scale(0.015625)"/>
       </defs>
       <use xlink:href="#DejaVuSans-30"/>
       <use xlink:href="#DejaVuSans-2e" x="63.623047"/>
       <use xlink:href="#DejaVuSans-30" x="95.410156"/>
       <use xlink:href="#DejaVuSans-33" x="159.033203"/>
       <use xlink:href="#DejaVuSans-31" x="222.65625"/>
      </g>
     </g>
    </g>
    <g id="xtick_5">
     <g id="line2d_9">
      <path d="M 295.546099 330.84327 
L 295.546099 22.318125 
" clip-path="url(#p021853ea00)" style="fill: none; stroke-dasharray: 1.85,0.8; stroke-dashoffset: 0; stroke: #c0c0c0; stroke-width: 0.5"/>
     </g>
     <g id="line2d_10">
      <g>
       <use xlink:href="#meff545bb6b" x="295.546099" y="330.84327" style="stroke: #000000; stroke-width: 0.8"/>
      </g>
     </g>
     <g id="text_5">
      <!-- 0.041 -->
      <g transform="translate(281.232036 345.441707)scale(0.1 -0.1)">
       <defs>
        <path id="DejaVuSans-34" d="M 2419 4116 
L 825 1625 
L 2419 1625 
L 2419 4116 
z
M 2253 4666 
L 3047 4666 
L 3047 1625 
L 3713 1625 
L 3713 1100 
L 3047 1100 
L 3047 0 
L 2419 0 
L 2419 1100 
L 313 1100 
L 313 1709 
L 2253 4666 
z
" transform="scale(0.015625)"/>
       </defs>
       <use xlink:href="#DejaVuSans-30"/>
       <use xlink:href="#DejaVuSans-2e" x="63.623047"/>
       <use xlink:href="#DejaVuSans-30" x="95.410156"/>
       <use xlink:href="#DejaVuSans-34" x="159.033203"/>
       <use xlink:href="#DejaVuSans-31" x="222.65625"/>
      </g>
     </g>
    </g>
    <g id="xtick_6">
     <g id="line2d_11">
      <path d="M 356.377805 330.84327 
L 356.377805 22.318125 
" clip-path="url(#p021853ea00)" style="fill: none; stroke-dasharray: 1.85,0.8; stroke-dashoffset: 0; stroke: #c0c0c0; stroke-width: 0.5"/>
     </g>
     <g id="line2d_12">
      <g>
       <use xlink:href="#meff545bb6b" x="356.377805" y="330.84327" style="stroke: #000000; stroke-width: 0.8"/>
      </g>
     </g>
     <g id="text_6">
      <!-- 0.052 -->
      <g transform="translate(342.063743 345.441707)scale(0.1 -0.1)">
       <defs>
        <path id="DejaVuSans-35" d="M 691 4666 
L 3169 4666 
L 3169 4134 
L 1269 4134 
L 1269 2991 
Q 1406 3038 1543 3061 
Q 1681 3084 1819 3084 
Q 2600 3084 3056 2656 
Q 3513 2228 3513 1497 
Q 3513 744 3044 326 
Q 2575 -91 1722 -91 
Q 1428 -91 1123 -41 
Q 819 9 494 109 
L 494 744 
Q 775 591 1075 516 
Q 1375 441 1709 441 
Q 2250 441 2565 725 
Q 2881 1009 2881 1497 
Q 2881 1984 2565 2268 
Q 2250 2553 1709 2553 
Q 1456 2553 1204 2497 
Q 953 2441 691 2322 
L 691 4666 
z
" transform="scale(0.015625)"/>
       </defs>
       <use xlink:href="#DejaVuSans-30"/>
       <use xlink:href="#DejaVuSans-2e" x="63.623047"/>
       <use xlink:href="#DejaVuSans-30" x="95.410156"/>
       <use xlink:href="#DejaVuSans-35" x="159.033203"/>
       <use xlink:href="#DejaVuSans-32" x="222.65625"/>
      </g>
     </g>
    </g>
    <g id="xtick_7">
     <g id="line2d_13">
      <path d="M 411.679357 330.84327 
L 411.679357 22.318125 
" clip-path="url(#p021853ea00)" style="fill: none; stroke-dasharray: 1.85,0.8; stroke-dashoffset: 0; stroke: #c0c0c0; stroke-width: 0.5"/>
     </g>
     <g id="line2d_14">
      <g>
       <use xlink:href="#meff545bb6b" x="411.679357" y="330.84327" style="stroke: #000000; stroke-width: 0.8"/>
      </g>
     </g>
     <g id="text_7">
      <!-- 0.062 -->
      <g transform="translate(397.365294 345.441707)scale(0.1 -0.1)">
       <defs>
        <path id="DejaVuSans-36" d="M 2113 2584 
Q 1688 2584 1439 2293 
Q 1191 2003 1191 1497 
Q 1191 994 1439 701 
Q 1688 409 2113 409 
Q 2538 409 2786 701 
Q 3034 994 3034 1497 
Q 3034 2003 2786 2293 
Q 2538 2584 2113 2584 
z
M 3366 4563 
L 3366 3988 
Q 3128 4100 2886 4159 
Q 2644 4219 2406 4219 
Q 1781 4219 1451 3797 
Q 1122 3375 1075 2522 
Q 1259 2794 1537 2939 
Q 1816 3084 2150 3084 
Q 2853 3084 3261 2657 
Q 3669 2231 3669 1497 
Q 3669 778 3244 343 
Q 2819 -91 2113 -91 
Q 1303 -91 875 529 
Q 447 1150 447 2328 
Q 447 3434 972 4092 
Q 1497 4750 2381 4750 
Q 2619 4750 2861 4703 
Q 3103 4656 3366 4563 
z
" transform="scale(0.015625)"/>
       </defs>
       <use xlink:href="#DejaVuSans-30"/>
       <use xlink:href="#DejaVuSans-2e" x="63.623047"/>
       <use xlink:href="#DejaVuSans-30" x="95.410156"/>
       <use xlink:href="#DejaVuSans-36" x="159.033203"/>
       <use xlink:href="#DejaVuSans-32" x="222.65625"/>
      </g>
     </g>
    </g>
    <g id="xtick_8">
     <g id="line2d_15">
      <path d="M 466.980908 330.84327 
L 466.980908 22.318125 
" clip-path="url(#p021853ea00)" style="fill: none; stroke-dasharray: 1.85,0.8; stroke-dashoffset: 0; stroke: #c0c0c0; stroke-width: 0.5"/>
     </g>
     <g id="line2d_16">
      <g>
       <use xlink:href="#meff545bb6b" x="466.980908" y="330.84327" style="stroke: #000000; stroke-width: 0.8"/>
      </g>
     </g>
     <g id="text_8">
      <!-- 0.072 -->
      <g transform="translate(452.666846 345.441707)scale(0.1 -0.1)">
       <defs>
        <path id="DejaVuSans-37" d="M 525 4666 
L 3525 4666 
L 3525 4397 
L 1831 0 
L 1172 0 
L 2766 4134 
L 525 4134 
L 525 4666 
z
" transform="scale(0.015625)"/>
       </defs>
       <use xlink:href="#DejaVuSans-30"/>
       <use xlink:href="#DejaVuSans-2e" x="63.623047"/>
       <use xlink:href="#DejaVuSans-30" x="95.410156"/>
       <use xlink:href="#DejaVuSans-37" x="159.033203"/>
       <use xlink:href="#DejaVuSans-32" x="222.65625"/>
      </g>
     </g>
    </g>
    <g id="xtick_9">
     <g id="line2d_17">
      <path d="M 522.282459 330.84327 
L 522.282459 22.318125 
" clip-path="url(#p021853ea00)" style="fill: none; stroke-dasharray: 1.85,0.8; stroke-dashoffset: 0; stroke: #c0c0c0; stroke-width: 0.5"/>
     </g>
     <g id="line2d_18">
      <g>
       <use xlink:href="#meff545bb6b" x="522.282459" y="330.84327" style="stroke: #000000; stroke-width: 0.8"/>
      </g>
     </g>
     <g id="text_9">
      <!-- 0.082 -->
      <g transform="translate(507.968397 345.441707)scale(0.1 -0.1)">
       <defs>
        <path id="DejaVuSans-38" d="M 2034 2216 
Q 1584 2216 1326 1975 
Q 1069 1734 1069 1313 
Q 1069 891 1326 650 
Q 1584 409 2034 409 
Q 2484 409 2743 651 
Q 3003 894 3003 1313 
Q 3003 1734 2745 1975 
Q 2488 2216 2034 2216 
z
M 1403 2484 
Q 997 2584 770 2862 
Q 544 3141 544 3541 
Q 544 4100 942 4425 
Q 1341 4750 2034 4750 
Q 2731 4750 3128 4425 
Q 3525 4100 3525 3541 
Q 3525 3141 3298 2862 
Q 3072 2584 2669 2484 
Q 3125 2378 3379 2068 
Q 3634 1759 3634 1313 
Q 3634 634 3220 271 
Q 2806 -91 2034 -91 
Q 1263 -91 848 271 
Q 434 634 434 1313 
Q 434 1759 690 2068 
Q 947 2378 1403 2484 
z
M 1172 3481 
Q 1172 3119 1398 2916 
Q 1625 2713 2034 2713 
Q 2441 2713 2670 2916 
Q 2900 3119 2900 3481 
Q 2900 3844 2670 4047 
Q 2441 4250 2034 4250 
Q 1625 4250 1398 4047 
Q 1172 3844 1172 3481 
z
" transform="scale(0.015625)"/>
       </defs>
       <use xlink:href="#DejaVuSans-30"/>
       <use xlink:href="#DejaVuSans-2e" x="63.623047"/>
       <use xlink:href="#DejaVuSans-30" x="95.410156"/>
       <use xlink:href="#DejaVuSans-38" x="159.033203"/>
       <use xlink:href="#DejaVuSans-32" x="222.65625"/>
      </g>
     </g>
    </g>
    <g id="xtick_10">
     <g id="line2d_19">
      <path d="M 621.825252 330.84327 
L 621.825252 22.318125 
" clip-path="url(#p021853ea00)" style="fill: none; stroke-dasharray: 1.85,0.8; stroke-dashoffset: 0; stroke: #c0c0c0; stroke-width: 0.5"/>
     </g>
     <g id="line2d_20">
      <g>
       <use xlink:href="#meff545bb6b" x="621.825252" y="330.84327" style="stroke: #000000; stroke-width: 0.8"/>
      </g>
     </g>
     <g id="text_10">
      <!-- 0.100 -->
      <g transform="translate(607.51119 345.441707)scale(0.1 -0.1)">
       <use xlink:href="#DejaVuSans-30"/>
       <use xlink:href="#DejaVuSans-2e" x="63.623047"/>
       <use xlink:href="#DejaVuSans-31" x="95.410156"/>
       <use xlink:href="#DejaVuSans-30" x="159.033203"/>
       <use xlink:href="#DejaVuSans-30" x="222.65625"/>
      </g>
     </g>
    </g>
    <g id="text_11">
     <!-- Winner per Participant -->
     <g transform="translate(292.144291 359.119832)scale(0.1 -0.1)">
      <defs>
       <path id="DejaVuSans-57" d="M 213 4666 
L 850 4666 
L 1831 722 
L 2809 4666 
L 3519 4666 
L 4500 722 
L 5478 4666 
L 6119 4666 
L 4947 0 
L 4153 0 
L 3169 4050 
L 2175 0 
L 1381 0 
L 213 4666 
z
" transform="scale(0.015625)"/>
       <path id="DejaVuSans-69" d="M 603 3500 
L 1178 3500 
L 1178 0 
L 603 0 
L 603 3500 
z
M 603 4863 
L 1178 4863 
L 1178 4134 
L 603 4134 
L 603 4863 
z
" transform="scale(0.015625)"/>
       <path id="DejaVuSans-6e" d="M 3513 2113 
L 3513 0 
L 2938 0 
L 2938 2094 
Q 2938 2591 2744 2837 
Q 2550 3084 2163 3084 
Q 1697 3084 1428 2787 
Q 1159 2491 1159 1978 
L 1159 0 
L 581 0 
L 581 3500 
L 1159 3500 
L 1159 2956 
Q 1366 3272 1645 3428 
Q 1925 3584 2291 3584 
Q 2894 3584 3203 3211 
Q 3513 2838 3513 2113 
z
" transform="scale(0.015625)"/>
       <path id="DejaVuSans-65" d="M 3597 1894 
L 3597 1613 
L 953 1613 
Q 991 1019 1311 708 
Q 1631 397 2203 397 
Q 2534 397 2845 478 
Q 3156 559 3463 722 
L 3463 178 
Q 3153 47 2828 -22 
Q 2503 -91 2169 -91 
Q 1331 -91 842 396 
Q 353 884 353 1716 
Q 353 2575 817 3079 
Q 1281 3584 2069 3584 
Q 2775 3584 3186 3129 
Q 3597 2675 3597 1894 
z
M 3022 2063 
Q 3016 2534 2758 2815 
Q 2500 3097 2075 3097 
Q 1594 3097 1305 2825 
Q 1016 2553 972 2059 
L 3022 2063 
z
" transform="scale(0.015625)"/>
       <path id="DejaVuSans-72" d="M 2631 2963 
Q 2534 3019 2420 3045 
Q 2306 3072 2169 3072 
Q 1681 3072 1420 2755 
Q 1159 2438 1159 1844 
L 1159 0 
L 581 0 
L 581 3500 
L 1159 3500 
L 1159 2956 
Q 1341 3275 1631 3429 
Q 1922 3584 2338 3584 
Q 2397 3584 2469 3576 
Q 2541 3569 2628 3553 
L 2631 2963 
z
" transform="scale(0.015625)"/>
       <path id="DejaVuSans-20" transform="scale(0.015625)"/>
       <path id="DejaVuSans-70" d="M 1159 525 
L 1159 -1331 
L 581 -1331 
L 581 3500 
L 1159 3500 
L 1159 2969 
Q 1341 3281 1617 3432 
Q 1894 3584 2278 3584 
Q 2916 3584 3314 3078 
Q 3713 2572 3713 1747 
Q 3713 922 3314 415 
Q 2916 -91 2278 -91 
Q 1894 -91 1617 61 
Q 1341 213 1159 525 
z
M 3116 1747 
Q 3116 2381 2855 2742 
Q 2594 3103 2138 3103 
Q 1681 3103 1420 2742 
Q 1159 2381 1159 1747 
Q 1159 1113 1420 752 
Q 1681 391 2138 391 
Q 2594 391 2855 752 
Q 3116 1113 3116 1747 
z
" transform="scale(0.015625)"/>
       <path id="DejaVuSans-50" d="M 1259 4147 
L 1259 2394 
L 2053 2394 
Q 2494 2394 2734 2622 
Q 2975 2850 2975 3272 
Q 2975 3691 2734 3919 
Q 2494 4147 2053 4147 
L 1259 4147 
z
M 628 4666 
L 2053 4666 
Q 2838 4666 3239 4311 
Q 3641 3956 3641 3272 
Q 3641 2581 3239 2228 
Q 2838 1875 2053 1875 
L 1259 1875 
L 1259 0 
L 628 0 
L 628 4666 
z
" transform="scale(0.015625)"/>
       <path id="DejaVuSans-61" d="M 2194 1759 
Q 1497 1759 1228 1600 
Q 959 1441 959 1056 
Q 959 750 1161 570 
Q 1363 391 1709 391 
Q 2188 391 2477 730 
Q 2766 1069 2766 1631 
L 2766 1759 
L 2194 1759 
z
M 3341 1997 
L 3341 0 
L 2766 0 
L 2766 531 
Q 2569 213 2275 61 
Q 1981 -91 1556 -91 
Q 1019 -91 701 211 
Q 384 513 384 1019 
Q 384 1609 779 1909 
Q 1175 2209 1959 2209 
L 2766 2209 
L 2766 2266 
Q 2766 2663 2505 2880 
Q 2244 3097 1772 3097 
Q 1472 3097 1187 3025 
Q 903 2953 641 2809 
L 641 3341 
Q 956 3463 1253 3523 
Q 1550 3584 1831 3584 
Q 2591 3584 2966 3190 
Q 3341 2797 3341 1997 
z
" transform="scale(0.015625)"/>
       <path id="DejaVuSans-74" d="M 1172 4494 
L 1172 3500 
L 2356 3500 
L 2356 3053 
L 1172 3053 
L 1172 1153 
Q 1172 725 1289 603 
Q 1406 481 1766 481 
L 2356 481 
L 2356 0 
L 1766 0 
Q 1100 0 847 248 
Q 594 497 594 1153 
L 594 3053 
L 172 3053 
L 172 3500 
L 594 3500 
L 594 4494 
L 1172 4494 
z
" transform="scale(0.015625)"/>
       <path id="DejaVuSans-63" d="M 3122 3366 
L 3122 2828 
Q 2878 2963 2633 3030 
Q 2388 3097 2138 3097 
Q 1578 3097 1268 2742 
Q 959 2388 959 1747 
Q 959 1106 1268 751 
Q 1578 397 2138 397 
Q 2388 397 2633 464 
Q 2878 531 3122 666 
L 3122 134 
Q 2881 22 2623 -34 
Q 2366 -91 2075 -91 
Q 1284 -91 818 406 
Q 353 903 353 1747 
Q 353 2603 823 3093 
Q 1294 3584 2113 3584 
Q 2378 3584 2631 3529 
Q 2884 3475 3122 3366 
z
" transform="scale(0.015625)"/>
      </defs>
      <use xlink:href="#DejaVuSans-57"/>
      <use xlink:href="#DejaVuSans-69" x="96.626953"/>
      <use xlink:href="#DejaVuSans-6e" x="124.410156"/>
      <use xlink:href="#DejaVuSans-6e" x="187.789062"/>
      <use xlink:href="#DejaVuSans-65" x="251.167969"/>
      <use xlink:href="#DejaVuSans-72" x="312.691406"/>
      <use xlink:href="#DejaVuSans-20" x="353.804688"/>
      <use xlink:href="#DejaVuSans-70" x="385.591797"/>
      <use xlink:href="#DejaVuSans-65" x="449.068359"/>
      <use xlink:href="#DejaVuSans-72" x="510.591797"/>
      <use xlink:href="#DejaVuSans-20" x="551.705078"/>
      <use xlink:href="#DejaVuSans-50" x="583.492188"/>
      <use xlink:href="#DejaVuSans-61" x="639.294922"/>
      <use xlink:href="#DejaVuSans-72" x="700.574219"/>
      <use xlink:href="#DejaVuSans-74" x="741.6875"/>
      <use xlink:href="#DejaVuSans-69" x="780.896484"/>
      <use xlink:href="#DejaVuSans-63" x="808.679688"/>
      <use xlink:href="#DejaVuSans-69" x="863.660156"/>
      <use xlink:href="#DejaVuSans-70" x="891.443359"/>
      <use xlink:href="#DejaVuSans-61" x="954.919922"/>
      <use xlink:href="#DejaVuSans-6e" x="1016.199219"/>
      <use xlink:href="#DejaVuSans-74" x="1079.578125"/>
     </g>
    </g>
   </g>
   <g id="matplotlib.axis_2">
    <g id="ytick_1">
     <g id="line2d_21">
      <path d="M 46.965625 321.470816 
L 649.19952 321.470816 
" clip-path="url(#p021853ea00)" style="fill: none; stroke-dasharray: 1.85,0.8; stroke-dashoffset: 0; stroke: #c0c0c0; stroke-width: 0.5"/>
     </g>
     <g id="line2d_22">
      <defs>
       <path id="m225d9a2b61" d="M 0 0 
L -3.5 0 
" style="stroke: #000000; stroke-width: 0.8"/>
      </defs>
      <g>
       <use xlink:href="#m225d9a2b61" x="46.965625" y="321.470816" style="stroke: #000000; stroke-width: 0.8"/>
      </g>
     </g>
     <g id="text_12">
      <!-- 0 -->
      <g transform="translate(33.603125 325.270035)scale(0.1 -0.1)">
       <use xlink:href="#DejaVuSans-30"/>
      </g>
     </g>
    </g>
    <g id="ytick_2">
     <g id="line2d_23">
      <path d="M 46.965625 291.555547 
L 649.19952 291.555547 
" clip-path="url(#p021853ea00)" style="fill: none; stroke-dasharray: 1.85,0.8; stroke-dashoffset: 0; stroke: #c0c0c0; stroke-width: 0.5"/>
     </g>
     <g id="line2d_24">
      <g>
       <use xlink:href="#m225d9a2b61" x="46.965625" y="291.555547" style="stroke: #000000; stroke-width: 0.8"/>
      </g>
     </g>
     <g id="text_13">
      <!-- 10 -->
      <g transform="translate(27.240625 295.354766)scale(0.1 -0.1)">
       <use xlink:href="#DejaVuSans-31"/>
       <use xlink:href="#DejaVuSans-30" x="63.623047"/>
      </g>
     </g>
    </g>
    <g id="ytick_3">
     <g id="line2d_25">
      <path d="M 46.965625 261.640278 
L 649.19952 261.640278 
" clip-path="url(#p021853ea00)" style="fill: none; stroke-dasharray: 1.85,0.8; stroke-dashoffset: 0; stroke: #c0c0c0; stroke-width: 0.5"/>
     </g>
     <g id="line2d_26">
      <g>
       <use xlink:href="#m225d9a2b61" x="46.965625" y="261.640278" style="stroke: #000000; stroke-width: 0.8"/>
      </g>
     </g>
     <g id="text_14">
      <!-- 20 -->
      <g transform="translate(27.240625 265.439497)scale(0.1 -0.1)">
       <use xlink:href="#DejaVuSans-32"/>
       <use xlink:href="#DejaVuSans-30" x="63.623047"/>
      </g>
     </g>
    </g>
    <g id="ytick_4">
     <g id="line2d_27">
      <path d="M 46.965625 231.725009 
L 649.19952 231.725009 
" clip-path="url(#p021853ea00)" style="fill: none; stroke-dasharray: 1.85,0.8; stroke-dashoffset: 0; stroke: #c0c0c0; stroke-width: 0.5"/>
     </g>
     <g id="line2d_28">
      <g>
       <use xlink:href="#m225d9a2b61" x="46.965625" y="231.725009" style="stroke: #000000; stroke-width: 0.8"/>
      </g>
     </g>
     <g id="text_15">
      <!-- 30 -->
      <g transform="translate(27.240625 235.524228)scale(0.1 -0.1)">
       <use xlink:href="#DejaVuSans-33"/>
       <use xlink:href="#DejaVuSans-30" x="63.623047"/>
      </g>
     </g>
    </g>
    <g id="ytick_5">
     <g id="line2d_29">
      <path d="M 46.965625 201.80974 
L 649.19952 201.80974 
" clip-path="url(#p021853ea00)" style="fill: none; stroke-dasharray: 1.85,0.8; stroke-dashoffset: 0; stroke: #c0c0c0; stroke-width: 0.5"/>
     </g>
     <g id="line2d_30">
      <g>
       <use xlink:href="#m225d9a2b61" x="46.965625" y="201.80974" style="stroke: #000000; stroke-width: 0.8"/>
      </g>
     </g>
     <g id="text_16">
      <!-- 40 -->
      <g transform="translate(27.240625 205.608958)scale(0.1 -0.1)">
       <use xlink:href="#DejaVuSans-34"/>
       <use xlink:href="#DejaVuSans-30" x="63.623047"/>
      </g>
     </g>
    </g>
    <g id="ytick_6">
     <g id="line2d_31">
      <path d="M 46.965625 171.894471 
L 649.19952 171.894471 
" clip-path="url(#p021853ea00)" style="fill: none; stroke-dasharray: 1.85,0.8; stroke-dashoffset: 0; stroke: #c0c0c0; stroke-width: 0.5"/>
     </g>
     <g id="line2d_32">
      <g>
       <use xlink:href="#m225d9a2b61" x="46.965625" y="171.894471" style="stroke: #000000; stroke-width: 0.8"/>
      </g>
     </g>
     <g id="text_17">
      <!-- 50 -->
      <g transform="translate(27.240625 175.693689)scale(0.1 -0.1)">
       <use xlink:href="#DejaVuSans-35"/>
       <use xlink:href="#DejaVuSans-30" x="63.623047"/>
      </g>
     </g>
    </g>
    <g id="ytick_7">
     <g id="line2d_33">
      <path d="M 46.965625 141.979201 
L 649.19952 141.979201 
" clip-path="url(#p021853ea00)" style="fill: none; stroke-dasharray: 1.85,0.8; stroke-dashoffset: 0; stroke: #c0c0c0; stroke-width: 0.5"/>
     </g>
     <g id="line2d_34">
      <g>
       <use xlink:href="#m225d9a2b61" x="46.965625" y="141.979201" style="stroke: #000000; stroke-width: 0.8"/>
      </g>
     </g>
     <g id="text_18">
      <!-- 60 -->
      <g transform="translate(27.240625 145.77842)scale(0.1 -0.1)">
       <use xlink:href="#DejaVuSans-36"/>
       <use xlink:href="#DejaVuSans-30" x="63.623047"/>
      </g>
     </g>
    </g>
    <g id="ytick_8">
     <g id="line2d_35">
      <path d="M 46.965625 112.063932 
L 649.19952 112.063932 
" clip-path="url(#p021853ea00)" style="fill: none; stroke-dasharray: 1.85,0.8; stroke-dashoffset: 0; stroke: #c0c0c0; stroke-width: 0.5"/>
     </g>
     <g id="line2d_36">
      <g>
       <use xlink:href="#m225d9a2b61" x="46.965625" y="112.063932" style="stroke: #000000; stroke-width: 0.8"/>
      </g>
     </g>
     <g id="text_19">
      <!-- 70 -->
      <g transform="translate(27.240625 115.863151)scale(0.1 -0.1)">
       <use xlink:href="#DejaVuSans-37"/>
       <use xlink:href="#DejaVuSans-30" x="63.623047"/>
      </g>
     </g>
    </g>
    <g id="ytick_9">
     <g id="line2d_37">
      <path d="M 46.965625 82.148663 
L 649.19952 82.148663 
" clip-path="url(#p021853ea00)" style="fill: none; stroke-dasharray: 1.85,0.8; stroke-dashoffset: 0; stroke: #c0c0c0; stroke-width: 0.5"/>
     </g>
     <g id="line2d_38">
      <g>
       <use xlink:href="#m225d9a2b61" x="46.965625" y="82.148663" style="stroke: #000000; stroke-width: 0.8"/>
      </g>
     </g>
     <g id="text_20">
      <!-- 80 -->
      <g transform="translate(27.240625 85.947882)scale(0.1 -0.1)">
       <use xlink:href="#DejaVuSans-38"/>
       <use xlink:href="#DejaVuSans-30" x="63.623047"/>
      </g>
     </g>
    </g>
    <g id="ytick_10">
     <g id="line2d_39">
      <path d="M 46.965625 52.233394 
L 649.19952 52.233394 
" clip-path="url(#p021853ea00)" style="fill: none; stroke-dasharray: 1.85,0.8; stroke-dashoffset: 0; stroke: #c0c0c0; stroke-width: 0.5"/>
     </g>
     <g id="line2d_40">
      <g>
       <use xlink:href="#m225d9a2b61" x="46.965625" y="52.233394" style="stroke: #000000; stroke-width: 0.8"/>
      </g>
     </g>
     <g id="text_21">
      <!-- 90 -->
      <g transform="translate(27.240625 56.032613)scale(0.1 -0.1)">
       <defs>
        <path id="DejaVuSans-39" d="M 703 97 
L 703 672 
Q 941 559 1184 500 
Q 1428 441 1663 441 
Q 2288 441 2617 861 
Q 2947 1281 2994 2138 
Q 2813 1869 2534 1725 
Q 2256 1581 1919 1581 
Q 1219 1581 811 2004 
Q 403 2428 403 3163 
Q 403 3881 828 4315 
Q 1253 4750 1959 4750 
Q 2769 4750 3195 4129 
Q 3622 3509 3622 2328 
Q 3622 1225 3098 567 
Q 2575 -91 1691 -91 
Q 1453 -91 1209 -44 
Q 966 3 703 97 
z
M 1959 2075 
Q 2384 2075 2632 2365 
Q 2881 2656 2881 3163 
Q 2881 3666 2632 3958 
Q 2384 4250 1959 4250 
Q 1534 4250 1286 3958 
Q 1038 3666 1038 3163 
Q 1038 2656 1286 2365 
Q 1534 2075 1959 2075 
z
" transform="scale(0.015625)"/>
       </defs>
       <use xlink:href="#DejaVuSans-39"/>
       <use xlink:href="#DejaVuSans-30" x="63.623047"/>
      </g>
     </g>
    </g>
    <g id="ytick_11">
     <g id="line2d_41">
      <path d="M 46.965625 22.318125 
L 649.19952 22.318125 
" clip-path="url(#p021853ea00)" style="fill: none; stroke-dasharray: 1.85,0.8; stroke-dashoffset: 0; stroke: #c0c0c0; stroke-width: 0.5"/>
     </g>
     <g id="line2d_42">
      <g>
       <use xlink:href="#m225d9a2b61" x="46.965625" y="22.318125" style="stroke: #000000; stroke-width: 0.8"/>
      </g>
     </g>
     <g id="text_22">
      <!-- 100 -->
      <g transform="translate(20.878125 26.117344)scale(0.1 -0.1)">
       <use xlink:href="#DejaVuSans-31"/>
       <use xlink:href="#DejaVuSans-30" x="63.623047"/>
       <use xlink:href="#DejaVuSans-30" x="127.246094"/>
      </g>
     </g>
    </g>
    <g id="text_23">
     <!-- Bias (Luck's role in choosing winners) % -->
     <g transform="translate(14.798438 276.697885)rotate(-90)scale(0.1 -0.1)">
      <defs>
       <path id="DejaVuSans-42" d="M 1259 2228 
L 1259 519 
L 2272 519 
Q 2781 519 3026 730 
Q 3272 941 3272 1375 
Q 3272 1813 3026 2020 
Q 2781 2228 2272 2228 
L 1259 2228 
z
M 1259 4147 
L 1259 2741 
L 2194 2741 
Q 2656 2741 2882 2914 
Q 3109 3088 3109 3444 
Q 3109 3797 2882 3972 
Q 2656 4147 2194 4147 
L 1259 4147 
z
M 628 4666 
L 2241 4666 
Q 2963 4666 3353 4366 
Q 3744 4066 3744 3513 
Q 3744 3084 3544 2831 
Q 3344 2578 2956 2516 
Q 3422 2416 3680 2098 
Q 3938 1781 3938 1306 
Q 3938 681 3513 340 
Q 3088 0 2303 0 
L 628 0 
L 628 4666 
z
" transform="scale(0.015625)"/>
       <path id="DejaVuSans-73" d="M 2834 3397 
L 2834 2853 
Q 2591 2978 2328 3040 
Q 2066 3103 1784 3103 
Q 1356 3103 1142 2972 
Q 928 2841 928 2578 
Q 928 2378 1081 2264 
Q 1234 2150 1697 2047 
L 1894 2003 
Q 2506 1872 2764 1633 
Q 3022 1394 3022 966 
Q 3022 478 2636 193 
Q 2250 -91 1575 -91 
Q 1294 -91 989 -36 
Q 684 19 347 128 
L 347 722 
Q 666 556 975 473 
Q 1284 391 1588 391 
Q 1994 391 2212 530 
Q 2431 669 2431 922 
Q 2431 1156 2273 1281 
Q 2116 1406 1581 1522 
L 1381 1569 
Q 847 1681 609 1914 
Q 372 2147 372 2553 
Q 372 3047 722 3315 
Q 1072 3584 1716 3584 
Q 2034 3584 2315 3537 
Q 2597 3491 2834 3397 
z
" transform="scale(0.015625)"/>
       <path id="DejaVuSans-28" d="M 1984 4856 
Q 1566 4138 1362 3434 
Q 1159 2731 1159 2009 
Q 1159 1288 1364 580 
Q 1569 -128 1984 -844 
L 1484 -844 
Q 1016 -109 783 600 
Q 550 1309 550 2009 
Q 550 2706 781 3412 
Q 1013 4119 1484 4856 
L 1984 4856 
z
" transform="scale(0.015625)"/>
       <path id="DejaVuSans-4c" d="M 628 4666 
L 1259 4666 
L 1259 531 
L 3531 531 
L 3531 0 
L 628 0 
L 628 4666 
z
" transform="scale(0.015625)"/>
       <path id="DejaVuSans-75" d="M 544 1381 
L 544 3500 
L 1119 3500 
L 1119 1403 
Q 1119 906 1312 657 
Q 1506 409 1894 409 
Q 2359 409 2629 706 
Q 2900 1003 2900 1516 
L 2900 3500 
L 3475 3500 
L 3475 0 
L 2900 0 
L 2900 538 
Q 2691 219 2414 64 
Q 2138 -91 1772 -91 
Q 1169 -91 856 284 
Q 544 659 544 1381 
z
M 1991 3584 
L 1991 3584 
z
" transform="scale(0.015625)"/>
       <path id="DejaVuSans-6b" d="M 581 4863 
L 1159 4863 
L 1159 1991 
L 2875 3500 
L 3609 3500 
L 1753 1863 
L 3688 0 
L 2938 0 
L 1159 1709 
L 1159 0 
L 581 0 
L 581 4863 
z
" transform="scale(0.015625)"/>
       <path id="DejaVuSans-27" d="M 1147 4666 
L 1147 2931 
L 616 2931 
L 616 4666 
L 1147 4666 
z
" transform="scale(0.015625)"/>
       <path id="DejaVuSans-6f" d="M 1959 3097 
Q 1497 3097 1228 2736 
Q 959 2375 959 1747 
Q 959 1119 1226 758 
Q 1494 397 1959 397 
Q 2419 397 2687 759 
Q 2956 1122 2956 1747 
Q 2956 2369 2687 2733 
Q 2419 3097 1959 3097 
z
M 1959 3584 
Q 2709 3584 3137 3096 
Q 3566 2609 3566 1747 
Q 3566 888 3137 398 
Q 2709 -91 1959 -91 
Q 1206 -91 779 398 
Q 353 888 353 1747 
Q 353 2609 779 3096 
Q 1206 3584 1959 3584 
z
" transform="scale(0.015625)"/>
       <path id="DejaVuSans-6c" d="M 603 4863 
L 1178 4863 
L 1178 0 
L 603 0 
L 603 4863 
z
" transform="scale(0.015625)"/>
       <path id="DejaVuSans-68" d="M 3513 2113 
L 3513 0 
L 2938 0 
L 2938 2094 
Q 2938 2591 2744 2837 
Q 2550 3084 2163 3084 
Q 1697 3084 1428 2787 
Q 1159 2491 1159 1978 
L 1159 0 
L 581 0 
L 581 4863 
L 1159 4863 
L 1159 2956 
Q 1366 3272 1645 3428 
Q 1925 3584 2291 3584 
Q 2894 3584 3203 3211 
Q 3513 2838 3513 2113 
z
" transform="scale(0.015625)"/>
       <path id="DejaVuSans-67" d="M 2906 1791 
Q 2906 2416 2648 2759 
Q 2391 3103 1925 3103 
Q 1463 3103 1205 2759 
Q 947 2416 947 1791 
Q 947 1169 1205 825 
Q 1463 481 1925 481 
Q 2391 481 2648 825 
Q 2906 1169 2906 1791 
z
M 3481 434 
Q 3481 -459 3084 -895 
Q 2688 -1331 1869 -1331 
Q 1566 -1331 1297 -1286 
Q 1028 -1241 775 -1147 
L 775 -588 
Q 1028 -725 1275 -790 
Q 1522 -856 1778 -856 
Q 2344 -856 2625 -561 
Q 2906 -266 2906 331 
L 2906 616 
Q 2728 306 2450 153 
Q 2172 0 1784 0 
Q 1141 0 747 490 
Q 353 981 353 1791 
Q 353 2603 747 3093 
Q 1141 3584 1784 3584 
Q 2172 3584 2450 3431 
Q 2728 3278 2906 2969 
L 2906 3500 
L 3481 3500 
L 3481 434 
z
" transform="scale(0.015625)"/>
       <path id="DejaVuSans-77" d="M 269 3500 
L 844 3500 
L 1563 769 
L 2278 3500 
L 2956 3500 
L 3675 769 
L 4391 3500 
L 4966 3500 
L 4050 0 
L 3372 0 
L 2619 2869 
L 1863 0 
L 1184 0 
L 269 3500 
z
" transform="scale(0.015625)"/>
       <path id="DejaVuSans-29" d="M 513 4856 
L 1013 4856 
Q 1481 4119 1714 3412 
Q 1947 2706 1947 2009 
Q 1947 1309 1714 600 
Q 1481 -109 1013 -844 
L 513 -844 
Q 928 -128 1133 580 
Q 1338 1288 1338 2009 
Q 1338 2731 1133 3434 
Q 928 4138 513 4856 
z
" transform="scale(0.015625)"/>
       <path id="DejaVuSans-25" d="M 4653 2053 
Q 4381 2053 4226 1822 
Q 4072 1591 4072 1178 
Q 4072 772 4226 539 
Q 4381 306 4653 306 
Q 4919 306 5073 539 
Q 5228 772 5228 1178 
Q 5228 1588 5073 1820 
Q 4919 2053 4653 2053 
z
M 4653 2450 
Q 5147 2450 5437 2106 
Q 5728 1763 5728 1178 
Q 5728 594 5436 251 
Q 5144 -91 4653 -91 
Q 4153 -91 3862 251 
Q 3572 594 3572 1178 
Q 3572 1766 3864 2108 
Q 4156 2450 4653 2450 
z
M 1428 4353 
Q 1159 4353 1004 4120 
Q 850 3888 850 3481 
Q 850 3069 1003 2837 
Q 1156 2606 1428 2606 
Q 1700 2606 1854 2837 
Q 2009 3069 2009 3481 
Q 2009 3884 1853 4118 
Q 1697 4353 1428 4353 
z
M 4250 4750 
L 4750 4750 
L 1831 -91 
L 1331 -91 
L 4250 4750 
z
M 1428 4750 
Q 1922 4750 2215 4408 
Q 2509 4066 2509 3481 
Q 2509 2891 2217 2550 
Q 1925 2209 1428 2209 
Q 931 2209 642 2551 
Q 353 2894 353 3481 
Q 353 4063 643 4406 
Q 934 4750 1428 4750 
z
" transform="scale(0.015625)"/>
      </defs>
      <use xlink:href="#DejaVuSans-42"/>
      <use xlink:href="#DejaVuSans-69" x="68.603516"/>
      <use xlink:href="#DejaVuSans-61" x="96.386719"/>
      <use xlink:href="#DejaVuSans-73" x="157.666016"/>
      <use xlink:href="#DejaVuSans-20" x="209.765625"/>
      <use xlink:href="#DejaVuSans-28" x="241.552734"/>
      <use xlink:href="#DejaVuSans-4c" x="280.566406"/>
      <use xlink:href="#DejaVuSans-75" x="334.529297"/>
      <use xlink:href="#DejaVuSans-63" x="397.908203"/>
      <use xlink:href="#DejaVuSans-6b" x="452.888672"/>
      <use xlink:href="#DejaVuSans-27" x="510.798828"/>
      <use xlink:href="#DejaVuSans-73" x="538.289062"/>
      <use xlink:href="#DejaVuSans-20" x="590.388672"/>
      <use xlink:href="#DejaVuSans-72" x="622.175781"/>
      <use xlink:href="#DejaVuSans-6f" x="661.039062"/>
      <use xlink:href="#DejaVuSans-6c" x="722.220703"/>
      <use xlink:href="#DejaVuSans-65" x="750.003906"/>
      <use xlink:href="#DejaVuSans-20" x="811.527344"/>
      <use xlink:href="#DejaVuSans-69" x="843.314453"/>
      <use xlink:href="#DejaVuSans-6e" x="871.097656"/>
      <use xlink:href="#DejaVuSans-20" x="934.476562"/>
      <use xlink:href="#DejaVuSans-63" x="966.263672"/>
      <use xlink:href="#DejaVuSans-68" x="1021.244141"/>
      <use xlink:href="#DejaVuSans-6f" x="1084.623047"/>
      <use xlink:href="#DejaVuSans-6f" x="1145.804688"/>
      <use xlink:href="#DejaVuSans-73" x="1206.986328"/>
      <use xlink:href="#DejaVuSans-69" x="1259.085938"/>
      <use xlink:href="#DejaVuSans-6e" x="1286.869141"/>
      <use xlink:href="#DejaVuSans-67" x="1350.248047"/>
      <use xlink:href="#DejaVuSans-20" x="1413.724609"/>
      <use xlink:href="#DejaVuSans-77" x="1445.511719"/>
      <use xlink:href="#DejaVuSans-69" x="1527.298828"/>
      <use xlink:href="#DejaVuSans-6e" x="1555.082031"/>
      <use xlink:href="#DejaVuSans-6e" x="1618.460938"/>
      <use xlink:href="#DejaVuSans-65" x="1681.839844"/>
      <use xlink:href="#DejaVuSans-72" x="1743.363281"/>
      <use xlink:href="#DejaVuSans-73" x="1784.476562"/>
      <use xlink:href="#DejaVuSans-29" x="1836.576172"/>
      <use xlink:href="#DejaVuSans-20" x="1875.589844"/>
      <use xlink:href="#DejaVuSans-25" x="1907.376953"/>
     </g>
    </g>
   </g>
   <g id="line2d_43">
    <path d="M 74.339893 125.824956 
L 85.513064 204.601831 
L 96.686234 241.956031 
L 107.859405 263.178778 
L 119.032575 278.426068 
L 130.205746 286.461866 
L 141.378917 290.824792 
L 152.552087 294.329148 
L 163.725258 297.678555 
L 174.898428 301.078313 
L 186.071599 302.562108 
L 197.244769 303.482971 
L 208.41794 305.290454 
L 219.591111 306.71115 
L 230.764281 308.090905 
L 241.937452 309.093732 
L 253.110622 309.1813 
L 264.283793 309.708098 
L 275.456964 310.707735 
L 286.630134 311.346819 
L 297.803305 311.882033 
L 308.976475 312.254983 
L 320.149646 313.280358 
L 331.322817 313.032691 
L 342.495987 313.53782 
L 353.669158 314.134314 
L 364.842328 314.190502 
L 376.015499 314.447466 
L 387.18867 314.785404 
L 398.36184 314.984985 
L 409.535011 315.031263 
L 420.708181 315.276098 
L 431.881352 315.346394 
L 443.054523 315.549717 
L 454.227693 315.651093 
L 465.400864 315.904991 
L 476.574034 316.137212 
L 487.747205 316.28603 
L 498.920376 316.342484 
L 510.093546 316.519971 
L 521.266717 316.361815 
L 532.439887 316.808604 
L 543.613058 316.89636 
L 554.786228 317.092556 
L 565.959399 317.016839 
L 577.13257 317.219528 
L 588.30574 317.24636 
L 599.478911 317.253356 
L 610.652081 317.345626 
L 621.825252 317.46217 
" clip-path="url(#p021853ea00)" style="fill: none; stroke: #1f77b4; stroke-width: 1.5; stroke-linecap: square"/>
    <defs>
     <path id="m8e0dc349dc" d="M 0 3 
C 0.795609 3 1.55874 2.683901 2.12132 2.12132 
C 2.683901 1.55874 3 0.795609 3 0 
C 3 -0.795609 2.683901 -1.55874 2.12132 -2.12132 
C 1.55874 -2.683901 0.795609 -3 0 -3 
C -0.795609 -3 -1.55874 -2.683901 -2.12132 -2.12132 
C -2.683901 -1.55874 -3 -0.795609 -3 0 
C -3 0.795609 -2.683901 1.55874 -2.12132 2.12132 
C -1.55874 2.683901 -0.795609 3 0 3 
z
" style="stroke: #1f77b4"/>
    </defs>
    <g clip-path="url(#p021853ea00)">
     <use xlink:href="#m8e0dc349dc" x="74.339893" y="125.824956" style="fill: #1f77b4; stroke: #1f77b4"/>
     <use xlink:href="#m8e0dc349dc" x="85.513064" y="204.601831" style="fill: #1f77b4; stroke: #1f77b4"/>
     <use xlink:href="#m8e0dc349dc" x="96.686234" y="241.956031" style="fill: #1f77b4; stroke: #1f77b4"/>
     <use xlink:href="#m8e0dc349dc" x="107.859405" y="263.178778" style="fill: #1f77b4; stroke: #1f77b4"/>
     <use xlink:href="#m8e0dc349dc" x="119.032575" y="278.426068" style="fill: #1f77b4; stroke: #1f77b4"/>
     <use xlink:href="#m8e0dc349dc" x="130.205746" y="286.461866" style="fill: #1f77b4; stroke: #1f77b4"/>
     <use xlink:href="#m8e0dc349dc" x="141.378917" y="290.824792" style="fill: #1f77b4; stroke: #1f77b4"/>
     <use xlink:href="#m8e0dc349dc" x="152.552087" y="294.329148" style="fill: #1f77b4; stroke: #1f77b4"/>
     <use xlink:href="#m8e0dc349dc" x="163.725258" y="297.678555" style="fill: #1f77b4; stroke: #1f77b4"/>
     <use xlink:href="#m8e0dc349dc" x="174.898428" y="301.078313" style="fill: #1f77b4; stroke: #1f77b4"/>
     <use xlink:href="#m8e0dc349dc" x="186.071599" y="302.562108" style="fill: #1f77b4; stroke: #1f77b4"/>
     <use xlink:href="#m8e0dc349dc" x="197.244769" y="303.482971" style="fill: #1f77b4; stroke: #1f77b4"/>
     <use xlink:href="#m8e0dc349dc" x="208.41794" y="305.290454" style="fill: #1f77b4; stroke: #1f77b4"/>
     <use xlink:href="#m8e0dc349dc" x="219.591111" y="306.71115" style="fill: #1f77b4; stroke: #1f77b4"/>
     <use xlink:href="#m8e0dc349dc" x="230.764281" y="308.090905" style="fill: #1f77b4; stroke: #1f77b4"/>
     <use xlink:href="#m8e0dc349dc" x="241.937452" y="309.093732" style="fill: #1f77b4; stroke: #1f77b4"/>
     <use xlink:href="#m8e0dc349dc" x="253.110622" y="309.1813" style="fill: #1f77b4; stroke: #1f77b4"/>
     <use xlink:href="#m8e0dc349dc" x="264.283793" y="309.708098" style="fill: #1f77b4; stroke: #1f77b4"/>
     <use xlink:href="#m8e0dc349dc" x="275.456964" y="310.707735" style="fill: #1f77b4; stroke: #1f77b4"/>
     <use xlink:href="#m8e0dc349dc" x="286.630134" y="311.346819" style="fill: #1f77b4; stroke: #1f77b4"/>
     <use xlink:href="#m8e0dc349dc" x="297.803305" y="311.882033" style="fill: #1f77b4; stroke: #1f77b4"/>
     <use xlink:href="#m8e0dc349dc" x="308.976475" y="312.254983" style="fill: #1f77b4; stroke: #1f77b4"/>
     <use xlink:href="#m8e0dc349dc" x="320.149646" y="313.280358" style="fill: #1f77b4; stroke: #1f77b4"/>
     <use xlink:href="#m8e0dc349dc" x="331.322817" y="313.032691" style="fill: #1f77b4; stroke: #1f77b4"/>
     <use xlink:href="#m8e0dc349dc" x="342.495987" y="313.53782" style="fill: #1f77b4; stroke: #1f77b4"/>
     <use xlink:href="#m8e0dc349dc" x="353.669158" y="314.134314" style="fill: #1f77b4; stroke: #1f77b4"/>
     <use xlink:href="#m8e0dc349dc" x="364.842328" y="314.190502" style="fill: #1f77b4; stroke: #1f77b4"/>
     <use xlink:href="#m8e0dc349dc" x="376.015499" y="314.447466" style="fill: #1f77b4; stroke: #1f77b4"/>
     <use xlink:href="#m8e0dc349dc" x="387.18867" y="314.785404" style="fill: #1f77b4; stroke: #1f77b4"/>
     <use xlink:href="#m8e0dc349dc" x="398.36184" y="314.984985" style="fill: #1f77b4; stroke: #1f77b4"/>
     <use xlink:href="#m8e0dc349dc" x="409.535011" y="315.031263" style="fill: #1f77b4; stroke: #1f77b4"/>
     <use xlink:href="#m8e0dc349dc" x="420.708181" y="315.276098" style="fill: #1f77b4; stroke: #1f77b4"/>
     <use xlink:href="#m8e0dc349dc" x="431.881352" y="315.346394" style="fill: #1f77b4; stroke: #1f77b4"/>
     <use xlink:href="#m8e0dc349dc" x="443.054523" y="315.549717" style="fill: #1f77b4; stroke: #1f77b4"/>
     <use xlink:href="#m8e0dc349dc" x="454.227693" y="315.651093" style="fill: #1f77b4; stroke: #1f77b4"/>
     <use xlink:href="#m8e0dc349dc" x="465.400864" y="315.904991" style="fill: #1f77b4; stroke: #1f77b4"/>
     <use xlink:href="#m8e0dc349dc" x="476.574034" y="316.137212" style="fill: #1f77b4; stroke: #1f77b4"/>
     <use xlink:href="#m8e0dc349dc" x="487.747205" y="316.28603" style="fill: #1f77b4; stroke: #1f77b4"/>
     <use xlink:href="#m8e0dc349dc" x="498.920376" y="316.342484" style="fill: #1f77b4; stroke: #1f77b4"/>
     <use xlink:href="#m8e0dc349dc" x="510.093546" y="316.519971" style="fill: #1f77b4; stroke: #1f77b4"/>
     <use xlink:href="#m8e0dc349dc" x="521.266717" y="316.361815" style="fill: #1f77b4; stroke: #1f77b4"/>
     <use xlink:href="#m8e0dc349dc" x="532.439887" y="316.808604" style="fill: #1f77b4; stroke: #1f77b4"/>
     <use xlink:href="#m8e0dc349dc" x="543.613058" y="316.89636" style="fill: #1f77b4; stroke: #1f77b4"/>
     <use xlink:href="#m8e0dc349dc" x="554.786228" y="317.092556" style="fill: #1f77b4; stroke: #1f77b4"/>
     <use xlink:href="#m8e0dc349dc" x="565.959399" y="317.016839" style="fill: #1f77b4; stroke: #1f77b4"/>
     <use xlink:href="#m8e0dc349dc" x="577.13257" y="317.219528" style="fill: #1f77b4; stroke: #1f77b4"/>
     <use xlink:href="#m8e0dc349dc" x="588.30574" y="317.24636" style="fill: #1f77b4; stroke: #1f77b4"/>
     <use xlink:href="#m8e0dc349dc" x="599.478911" y="317.253356" style="fill: #1f77b4; stroke: #1f77b4"/>
     <use xlink:href="#m8e0dc349dc" x="610.652081" y="317.345626" style="fill: #1f77b4; stroke: #1f77b4"/>
     <use xlink:href="#m8e0dc349dc" x="621.825252" y="317.46217" style="fill: #1f77b4; stroke: #1f77b4"/>
    </g>
   </g>
   <g id="line2d_44">
    <path d="M 74.339893 70.481708 
L 85.513064 112.96139 
L 96.686234 135.577334 
L 107.859405 153.090587 
L 119.032575 169.0359 
L 130.205746 182.863403 
L 141.378917 195.689669 
L 152.552087 204.840889 
L 163.725258 214.020768 
L 174.898428 223.235964 
L 186.071599 230.14458 
L 197.244769 235.709413 
L 208.41794 243.548663 
L 219.591111 248.893294 
L 230.764281 253.1677 
L 241.937452 257.712107 
L 253.110622 261.927752 
L 264.283793 265.580958 
L 275.456964 268.184744 
L 286.630134 270.9574 
L 297.803305 273.888196 
L 308.976475 275.260686 
L 320.149646 277.797159 
L 331.322817 279.633618 
L 342.495987 281.387989 
L 353.669158 283.074713 
L 364.842328 284.53804 
L 376.015499 285.712637 
L 387.18867 287.200924 
L 398.36184 288.92602 
L 409.535011 289.612997 
L 420.708181 290.374929 
L 431.881352 290.930792 
L 443.054523 292.175094 
L 454.227693 292.750439 
L 465.400864 294.067261 
L 476.574034 294.944862 
L 487.747205 295.345341 
L 498.920376 296.144865 
L 510.093546 296.577709 
L 521.266717 297.099746 
L 532.439887 297.752791 
L 543.613058 298.431178 
L 554.786228 299.262647 
L 565.959399 299.57737 
L 577.13257 300.159035 
L 588.30574 300.635261 
L 599.478911 300.848309 
L 610.652081 301.168768 
L 621.825252 301.717764 
" clip-path="url(#p021853ea00)" style="fill: none; stroke: #ff7f0e; stroke-width: 1.5; stroke-linecap: square"/>
    <defs>
     <path id="m5e8d930973" d="M 0 3 
C 0.795609 3 1.55874 2.683901 2.12132 2.12132 
C 2.683901 1.55874 3 0.795609 3 0 
C 3 -0.795609 2.683901 -1.55874 2.12132 -2.12132 
C 1.55874 -2.683901 0.795609 -3 0 -3 
C -0.795609 -3 -1.55874 -2.683901 -2.12132 -2.12132 
C -2.683901 -1.55874 -3 -0.795609 -3 0 
C -3 0.795609 -2.683901 1.55874 -2.12132 2.12132 
C -1.55874 2.683901 -0.795609 3 0 3 
z
" style="stroke: #ff7f0e"/>
    </defs>
    <g clip-path="url(#p021853ea00)">
     <use xlink:href="#m5e8d930973" x="74.339893" y="70.481708" style="fill: #ff7f0e; stroke: #ff7f0e"/>
     <use xlink:href="#m5e8d930973" x="85.513064" y="112.96139" style="fill: #ff7f0e; stroke: #ff7f0e"/>
     <use xlink:href="#m5e8d930973" x="96.686234" y="135.577334" style="fill: #ff7f0e; stroke: #ff7f0e"/>
     <use xlink:href="#m5e8d930973" x="107.859405" y="153.090587" style="fill: #ff7f0e; stroke: #ff7f0e"/>
     <use xlink:href="#m5e8d930973" x="119.032575" y="169.0359" style="fill: #ff7f0e; stroke: #ff7f0e"/>
     <use xlink:href="#m5e8d930973" x="130.205746" y="182.863403" style="fill: #ff7f0e; stroke: #ff7f0e"/>
     <use xlink:href="#m5e8d930973" x="141.378917" y="195.689669" style="fill: #ff7f0e; stroke: #ff7f0e"/>
     <use xlink:href="#m5e8d930973" x="152.552087" y="204.840889" style="fill: #ff7f0e; stroke: #ff7f0e"/>
     <use xlink:href="#m5e8d930973" x="163.725258" y="214.020768" style="fill: #ff7f0e; stroke: #ff7f0e"/>
     <use xlink:href="#m5e8d930973" x="174.898428" y="223.235964" style="fill: #ff7f0e; stroke: #ff7f0e"/>
     <use xlink:href="#m5e8d930973" x="186.071599" y="230.14458" style="fill: #ff7f0e; stroke: #ff7f0e"/>
     <use xlink:href="#m5e8d930973" x="197.244769" y="235.709413" style="fill: #ff7f0e; stroke: #ff7f0e"/>
     <use xlink:href="#m5e8d930973" x="208.41794" y="243.548663" style="fill: #ff7f0e; stroke: #ff7f0e"/>
     <use xlink:href="#m5e8d930973" x="219.591111" y="248.893294" style="fill: #ff7f0e; stroke: #ff7f0e"/>
     <use xlink:href="#m5e8d930973" x="230.764281" y="253.1677" style="fill: #ff7f0e; stroke: #ff7f0e"/>
     <use xlink:href="#m5e8d930973" x="241.937452" y="257.712107" style="fill: #ff7f0e; stroke: #ff7f0e"/>
     <use xlink:href="#m5e8d930973" x="253.110622" y="261.927752" style="fill: #ff7f0e; stroke: #ff7f0e"/>
     <use xlink:href="#m5e8d930973" x="264.283793" y="265.580958" style="fill: #ff7f0e; stroke: #ff7f0e"/>
     <use xlink:href="#m5e8d930973" x="275.456964" y="268.184744" style="fill: #ff7f0e; stroke: #ff7f0e"/>
     <use xlink:href="#m5e8d930973" x="286.630134" y="270.9574" style="fill: #ff7f0e; stroke: #ff7f0e"/>
     <use xlink:href="#m5e8d930973" x="297.803305" y="273.888196" style="fill: #ff7f0e; stroke: #ff7f0e"/>
     <use xlink:href="#m5e8d930973" x="308.976475" y="275.260686" style="fill: #ff7f0e; stroke: #ff7f0e"/>
     <use xlink:href="#m5e8d930973" x="320.149646" y="277.797159" style="fill: #ff7f0e; stroke: #ff7f0e"/>
     <use xlink:href="#m5e8d930973" x="331.322817" y="279.633618" style="fill: #ff7f0e; stroke: #ff7f0e"/>
     <use xlink:href="#m5e8d930973" x="342.495987" y="281.387989" style="fill: #ff7f0e; stroke: #ff7f0e"/>
     <use xlink:href="#m5e8d930973" x="353.669158" y="283.074713" style="fill: #ff7f0e; stroke: #ff7f0e"/>
     <use xlink:href="#m5e8d930973" x="364.842328" y="284.53804" style="fill: #ff7f0e; stroke: #ff7f0e"/>
     <use xlink:href="#m5e8d930973" x="376.015499" y="285.712637" style="fill: #ff7f0e; stroke: #ff7f0e"/>
     <use xlink:href="#m5e8d930973" x="387.18867" y="287.200924" style="fill: #ff7f0e; stroke: #ff7f0e"/>
     <use xlink:href="#m5e8d930973" x="398.36184" y="288.92602" style="fill: #ff7f0e; stroke: #ff7f0e"/>
     <use xlink:href="#m5e8d930973" x="409.535011" y="289.612997" style="fill: #ff7f0e; stroke: #ff7f0e"/>
     <use xlink:href="#m5e8d930973" x="420.708181" y="290.374929" style="fill: #ff7f0e; stroke: #ff7f0e"/>
     <use xlink:href="#m5e8d930973" x="431.881352" y="290.930792" style="fill: #ff7f0e; stroke: #ff7f0e"/>
     <use xlink:href="#m5e8d930973" x="443.054523" y="292.175094" style="fill: #ff7f0e; stroke: #ff7f0e"/>
     <use xlink:href="#m5e8d930973" x="454.227693" y="292.750439" style="fill: #ff7f0e; stroke: #ff7f0e"/>
     <use xlink:href="#m5e8d930973" x="465.400864" y="294.067261" style="fill: #ff7f0e; stroke: #ff7f0e"/>
     <use xlink:href="#m5e8d930973" x="476.574034" y="294.944862" style="fill: #ff7f0e; stroke: #ff7f0e"/>
     <use xlink:href="#m5e8d930973" x="487.747205" y="295.345341" style="fill: #ff7f0e; stroke: #ff7f0e"/>
     <use xlink:href="#m5e8d930973" x="498.920376" y="296.144865" style="fill: #ff7f0e; stroke: #ff7f0e"/>
     <use xlink:href="#m5e8d930973" x="510.093546" y="296.577709" style="fill: #ff7f0e; stroke: #ff7f0e"/>
     <use xlink:href="#m5e8d930973" x="521.266717" y="297.099746" style="fill: #ff7f0e; stroke: #ff7f0e"/>
     <use xlink:href="#m5e8d930973" x="532.439887" y="297.752791" style="fill: #ff7f0e; stroke: #ff7f0e"/>
     <use xlink:href="#m5e8d930973" x="543.613058" y="298.431178" style="fill: #ff7f0e; stroke: #ff7f0e"/>
     <use xlink:href="#m5e8d930973" x="554.786228" y="299.262647" style="fill: #ff7f0e; stroke: #ff7f0e"/>
     <use xlink:href="#m5e8d930973" x="565.959399" y="299.57737" style="fill: #ff7f0e; stroke: #ff7f0e"/>
     <use xlink:href="#m5e8d930973" x="577.13257" y="300.159035" style="fill: #ff7f0e; stroke: #ff7f0e"/>
     <use xlink:href="#m5e8d930973" x="588.30574" y="300.635261" style="fill: #ff7f0e; stroke: #ff7f0e"/>
     <use xlink:href="#m5e8d930973" x="599.478911" y="300.848309" style="fill: #ff7f0e; stroke: #ff7f0e"/>
     <use xlink:href="#m5e8d930973" x="610.652081" y="301.168768" style="fill: #ff7f0e; stroke: #ff7f0e"/>
     <use xlink:href="#m5e8d930973" x="621.825252" y="301.717764" style="fill: #ff7f0e; stroke: #ff7f0e"/>
    </g>
   </g>
   <g id="line2d_45">
    <path d="M 74.339893 59.113906 
L 85.513064 88.131717 
L 96.686234 102.550877 
L 107.859405 117.833306 
L 119.032575 128.816483 
L 130.205746 140.443012 
L 141.378917 152.049914 
L 152.552087 157.531179 
L 163.725258 164.441895 
L 174.898428 170.625813 
L 186.071599 180.981939 
L 197.244769 183.628477 
L 208.41794 189.772405 
L 219.591111 194.495896 
L 230.764281 199.617319 
L 241.937452 204.562327 
L 253.110622 208.394692 
L 264.283793 213.182627 
L 275.456964 218.227047 
L 286.630134 220.520104 
L 297.803305 223.639215 
L 308.976475 227.76158 
L 320.149646 230.987011 
L 331.322817 234.356795 
L 342.495987 238.035072 
L 353.669158 240.624075 
L 364.842328 243.445084 
L 376.015499 246.882079 
L 387.18867 248.73249 
L 398.36184 251.52942 
L 409.535011 253.792376 
L 420.708181 256.165219 
L 431.881352 257.449404 
L 443.054523 260.069284 
L 454.227693 261.507035 
L 465.400864 263.726419 
L 476.574034 264.968707 
L 487.747205 267.074029 
L 498.920376 268.266298 
L 510.093546 269.124725 
L 521.266717 270.534402 
L 532.439887 271.689381 
L 543.613058 272.849787 
L 554.786228 274.192425 
L 565.959399 274.792336 
L 577.13257 275.790623 
L 588.30574 277.129952 
L 599.478911 278.416536 
L 610.652081 278.898852 
L 621.825252 279.921499 
" clip-path="url(#p021853ea00)" style="fill: none; stroke: #2ca02c; stroke-width: 1.5; stroke-linecap: square"/>
    <defs>
     <path id="m739984b3dd" d="M 0 3 
C 0.795609 3 1.55874 2.683901 2.12132 2.12132 
C 2.683901 1.55874 3 0.795609 3 0 
C 3 -0.795609 2.683901 -1.55874 2.12132 -2.12132 
C 1.55874 -2.683901 0.795609 -3 0 -3 
C -0.795609 -3 -1.55874 -2.683901 -2.12132 -2.12132 
C -2.683901 -1.55874 -3 -0.795609 -3 0 
C -3 0.795609 -2.683901 1.55874 -2.12132 2.12132 
C -1.55874 2.683901 -0.795609 3 0 3 
z
" style="stroke: #2ca02c"/>
    </defs>
    <g clip-path="url(#p021853ea00)">
     <use xlink:href="#m739984b3dd" x="74.339893" y="59.113906" style="fill: #2ca02c; stroke: #2ca02c"/>
     <use xlink:href="#m739984b3dd" x="85.513064" y="88.131717" style="fill: #2ca02c; stroke: #2ca02c"/>
     <use xlink:href="#m739984b3dd" x="96.686234" y="102.550877" style="fill: #2ca02c; stroke: #2ca02c"/>
     <use xlink:href="#m739984b3dd" x="107.859405" y="117.833306" style="fill: #2ca02c; stroke: #2ca02c"/>
     <use xlink:href="#m739984b3dd" x="119.032575" y="128.816483" style="fill: #2ca02c; stroke: #2ca02c"/>
     <use xlink:href="#m739984b3dd" x="130.205746" y="140.443012" style="fill: #2ca02c; stroke: #2ca02c"/>
     <use xlink:href="#m739984b3dd" x="141.378917" y="152.049914" style="fill: #2ca02c; stroke: #2ca02c"/>
     <use xlink:href="#m739984b3dd" x="152.552087" y="157.531179" style="fill: #2ca02c; stroke: #2ca02c"/>
     <use xlink:href="#m739984b3dd" x="163.725258" y="164.441895" style="fill: #2ca02c; stroke: #2ca02c"/>
     <use xlink:href="#m739984b3dd" x="174.898428" y="170.625813" style="fill: #2ca02c; stroke: #2ca02c"/>
     <use xlink:href="#m739984b3dd" x="186.071599" y="180.981939" style="fill: #2ca02c; stroke: #2ca02c"/>
     <use xlink:href="#m739984b3dd" x="197.244769" y="183.628477" style="fill: #2ca02c; stroke: #2ca02c"/>
     <use xlink:href="#m739984b3dd" x="208.41794" y="189.772405" style="fill: #2ca02c; stroke: #2ca02c"/>
     <use xlink:href="#m739984b3dd" x="219.591111" y="194.495896" style="fill: #2ca02c; stroke: #2ca02c"/>
     <use xlink:href="#m739984b3dd" x="230.764281" y="199.617319" style="fill: #2ca02c; stroke: #2ca02c"/>
     <use xlink:href="#m739984b3dd" x="241.937452" y="204.562327" style="fill: #2ca02c; stroke: #2ca02c"/>
     <use xlink:href="#m739984b3dd" x="253.110622" y="208.394692" style="fill: #2ca02c; stroke: #2ca02c"/>
     <use xlink:href="#m739984b3dd" x="264.283793" y="213.182627" style="fill: #2ca02c; stroke: #2ca02c"/>
     <use xlink:href="#m739984b3dd" x="275.456964" y="218.227047" style="fill: #2ca02c; stroke: #2ca02c"/>
     <use xlink:href="#m739984b3dd" x="286.630134" y="220.520104" style="fill: #2ca02c; stroke: #2ca02c"/>
     <use xlink:href="#m739984b3dd" x="297.803305" y="223.639215" style="fill: #2ca02c; stroke: #2ca02c"/>
     <use xlink:href="#m739984b3dd" x="308.976475" y="227.76158" style="fill: #2ca02c; stroke: #2ca02c"/>
     <use xlink:href="#m739984b3dd" x="320.149646" y="230.987011" style="fill: #2ca02c; stroke: #2ca02c"/>
     <use xlink:href="#m739984b3dd" x="331.322817" y="234.356795" style="fill: #2ca02c; stroke: #2ca02c"/>
     <use xlink:href="#m739984b3dd" x="342.495987" y="238.035072" style="fill: #2ca02c; stroke: #2ca02c"/>
     <use xlink:href="#m739984b3dd" x="353.669158" y="240.624075" style="fill: #2ca02c; stroke: #2ca02c"/>
     <use xlink:href="#m739984b3dd" x="364.842328" y="243.445084" style="fill: #2ca02c; stroke: #2ca02c"/>
     <use xlink:href="#m739984b3dd" x="376.015499" y="246.882079" style="fill: #2ca02c; stroke: #2ca02c"/>
     <use xlink:href="#m739984b3dd" x="387.18867" y="248.73249" style="fill: #2ca02c; stroke: #2ca02c"/>
     <use xlink:href="#m739984b3dd" x="398.36184" y="251.52942" style="fill: #2ca02c; stroke: #2ca02c"/>
     <use xlink:href="#m739984b3dd" x="409.535011" y="253.792376" style="fill: #2ca02c; stroke: #2ca02c"/>
     <use xlink:href="#m739984b3dd" x="420.708181" y="256.165219" style="fill: #2ca02c; stroke: #2ca02c"/>
     <use xlink:href="#m739984b3dd" x="431.881352" y="257.449404" style="fill: #2ca02c; stroke: #2ca02c"/>
     <use xlink:href="#m739984b3dd" x="443.054523" y="260.069284" style="fill: #2ca02c; stroke: #2ca02c"/>
     <use xlink:href="#m739984b3dd" x="454.227693" y="261.507035" style="fill: #2ca02c; stroke: #2ca02c"/>
     <use xlink:href="#m739984b3dd" x="465.400864" y="263.726419" style="fill: #2ca02c; stroke: #2ca02c"/>
     <use xlink:href="#m739984b3dd" x="476.574034" y="264.968707" style="fill: #2ca02c; stroke: #2ca02c"/>
     <use xlink:href="#m739984b3dd" x="487.747205" y="267.074029" style="fill: #2ca02c; stroke: #2ca02c"/>
     <use xlink:href="#m739984b3dd" x="498.920376" y="268.266298" style="fill: #2ca02c; stroke: #2ca02c"/>
     <use xlink:href="#m739984b3dd" x="510.093546" y="269.124725" style="fill: #2ca02c; stroke: #2ca02c"/>
     <use xlink:href="#m739984b3dd" x="521.266717" y="270.534402" style="fill: #2ca02c; stroke: #2ca02c"/>
     <use xlink:href="#m739984b3dd" x="532.439887" y="271.689381" style="fill: #2ca02c; stroke: #2ca02c"/>
     <use xlink:href="#m739984b3dd" x="543.613058" y="272.849787" style="fill: #2ca02c; stroke: #2ca02c"/>
     <use xlink:href="#m739984b3dd" x="554.786228" y="274.192425" style="fill: #2ca02c; stroke: #2ca02c"/>
     <use xlink:href="#m739984b3dd" x="565.959399" y="274.792336" style="fill: #2ca02c; stroke: #2ca02c"/>
     <use xlink:href="#m739984b3dd" x="577.13257" y="275.790623" style="fill: #2ca02c; stroke: #2ca02c"/>
     <use xlink:href="#m739984b3dd" x="588.30574" y="277.129952" style="fill: #2ca02c; stroke: #2ca02c"/>
     <use xlink:href="#m739984b3dd" x="599.478911" y="278.416536" style="fill: #2ca02c; stroke: #2ca02c"/>
     <use xlink:href="#m739984b3dd" x="610.652081" y="278.898852" style="fill: #2ca02c; stroke: #2ca02c"/>
     <use xlink:href="#m739984b3dd" x="621.825252" y="279.921499" style="fill: #2ca02c; stroke: #2ca02c"/>
    </g>
   </g>
   <g id="line2d_46">
    <path d="M 74.339893 49.840173 
L 85.513064 66.393288 
L 96.686234 77.900695 
L 107.859405 89.071911 
L 119.032575 96.042644 
L 130.205746 103.574464 
L 141.378917 111.652883 
L 152.552087 116.561128 
L 163.725258 121.388399 
L 174.898428 128.352875 
L 186.071599 132.200295 
L 197.244769 136.795607 
L 208.41794 139.87801 
L 219.591111 146.312516 
L 230.764281 149.263365 
L 241.937452 152.760167 
L 253.110622 156.891918 
L 264.283793 159.047007 
L 275.456964 163.248717 
L 286.630134 166.999937 
L 297.803305 168.924621 
L 308.976475 171.818648 
L 320.149646 174.049161 
L 331.322817 178.407668 
L 342.495987 181.141559 
L 353.669158 182.611688 
L 364.842328 185.236121 
L 376.015499 189.159084 
L 387.18867 190.171399 
L 398.36184 192.49327 
L 409.535011 196.054936 
L 420.708181 197.774001 
L 431.881352 199.588896 
L 443.054523 201.495541 
L 454.227693 203.898651 
L 465.400864 206.657933 
L 476.574034 208.88874 
L 487.747205 210.487934 
L 498.920376 211.473488 
L 510.093546 214.211252 
L 521.266717 215.406924 
L 532.439887 216.835201 
L 543.613058 218.848891 
L 554.786228 220.566409 
L 565.959399 222.014206 
L 577.13257 223.795347 
L 588.30574 225.4839 
L 599.478911 226.602916 
L 610.652081 228.52875 
L 621.825252 229.472389 
" clip-path="url(#p021853ea00)" style="fill: none; stroke: #d62728; stroke-width: 1.5; stroke-linecap: square"/>
    <defs>
     <path id="me3b9d3e658" d="M 0 3 
C 0.795609 3 1.55874 2.683901 2.12132 2.12132 
C 2.683901 1.55874 3 0.795609 3 0 
C 3 -0.795609 2.683901 -1.55874 2.12132 -2.12132 
C 1.55874 -2.683901 0.795609 -3 0 -3 
C -0.795609 -3 -1.55874 -2.683901 -2.12132 -2.12132 
C -2.683901 -1.55874 -3 -0.795609 -3 0 
C -3 0.795609 -2.683901 1.55874 -2.12132 2.12132 
C -1.55874 2.683901 -0.795609 3 0 3 
z
" style="stroke: #d62728"/>
    </defs>
    <g clip-path="url(#p021853ea00)">
     <use xlink:href="#me3b9d3e658" x="74.339893" y="49.840173" style="fill: #d62728; stroke: #d62728"/>
     <use xlink:href="#me3b9d3e658" x="85.513064" y="66.393288" style="fill: #d62728; stroke: #d62728"/>
     <use xlink:href="#me3b9d3e658" x="96.686234" y="77.900695" style="fill: #d62728; stroke: #d62728"/>
     <use xlink:href="#me3b9d3e658" x="107.859405" y="89.071911" style="fill: #d62728; stroke: #d62728"/>
     <use xlink:href="#me3b9d3e658" x="119.032575" y="96.042644" style="fill: #d62728; stroke: #d62728"/>
     <use xlink:href="#me3b9d3e658" x="130.205746" y="103.574464" style="fill: #d62728; stroke: #d62728"/>
     <use xlink:href="#me3b9d3e658" x="141.378917" y="111.652883" style="fill: #d62728; stroke: #d62728"/>
     <use xlink:href="#me3b9d3e658" x="152.552087" y="116.561128" style="fill: #d62728; stroke: #d62728"/>
     <use xlink:href="#me3b9d3e658" x="163.725258" y="121.388399" style="fill: #d62728; stroke: #d62728"/>
     <use xlink:href="#me3b9d3e658" x="174.898428" y="128.352875" style="fill: #d62728; stroke: #d62728"/>
     <use xlink:href="#me3b9d3e658" x="186.071599" y="132.200295" style="fill: #d62728; stroke: #d62728"/>
     <use xlink:href="#me3b9d3e658" x="197.244769" y="136.795607" style="fill: #d62728; stroke: #d62728"/>
     <use xlink:href="#me3b9d3e658" x="208.41794" y="139.87801" style="fill: #d62728; stroke: #d62728"/>
     <use xlink:href="#me3b9d3e658" x="219.591111" y="146.312516" style="fill: #d62728; stroke: #d62728"/>
     <use xlink:href="#me3b9d3e658" x="230.764281" y="149.263365" style="fill: #d62728; stroke: #d62728"/>
     <use xlink:href="#me3b9d3e658" x="241.937452" y="152.760167" style="fill: #d62728; stroke: #d62728"/>
     <use xlink:href="#me3b9d3e658" x="253.110622" y="156.891918" style="fill: #d62728; stroke: #d62728"/>
     <use xlink:href="#me3b9d3e658" x="264.283793" y="159.047007" style="fill: #d62728; stroke: #d62728"/>
     <use xlink:href="#me3b9d3e658" x="275.456964" y="163.248717" style="fill: #d62728; stroke: #d62728"/>
     <use xlink:href="#me3b9d3e658" x="286.630134" y="166.999937" style="fill: #d62728; stroke: #d62728"/>
     <use xlink:href="#me3b9d3e658" x="297.803305" y="168.924621" style="fill: #d62728; stroke: #d62728"/>
     <use xlink:href="#me3b9d3e658" x="308.976475" y="171.818648" style="fill: #d62728; stroke: #d62728"/>
     <use xlink:href="#me3b9d3e658" x="320.149646" y="174.049161" style="fill: #d62728; stroke: #d62728"/>
     <use xlink:href="#me3b9d3e658" x="331.322817" y="178.407668" style="fill: #d62728; stroke: #d62728"/>
     <use xlink:href="#me3b9d3e658" x="342.495987" y="181.141559" style="fill: #d62728; stroke: #d62728"/>
     <use xlink:href="#me3b9d3e658" x="353.669158" y="182.611688" style="fill: #d62728; stroke: #d62728"/>
     <use xlink:href="#me3b9d3e658" x="364.842328" y="185.236121" style="fill: #d62728; stroke: #d62728"/>
     <use xlink:href="#me3b9d3e658" x="376.015499" y="189.159084" style="fill: #d62728; stroke: #d62728"/>
     <use xlink:href="#me3b9d3e658" x="387.18867" y="190.171399" style="fill: #d62728; stroke: #d62728"/>
     <use xlink:href="#me3b9d3e658" x="398.36184" y="192.49327" style="fill: #d62728; stroke: #d62728"/>
     <use xlink:href="#me3b9d3e658" x="409.535011" y="196.054936" style="fill: #d62728; stroke: #d62728"/>
     <use xlink:href="#me3b9d3e658" x="420.708181" y="197.774001" style="fill: #d62728; stroke: #d62728"/>
     <use xlink:href="#me3b9d3e658" x="431.881352" y="199.588896" style="fill: #d62728; stroke: #d62728"/>
     <use xlink:href="#me3b9d3e658" x="443.054523" y="201.495541" style="fill: #d62728; stroke: #d62728"/>
     <use xlink:href="#me3b9d3e658" x="454.227693" y="203.898651" style="fill: #d62728; stroke: #d62728"/>
     <use xlink:href="#me3b9d3e658" x="465.400864" y="206.657933" style="fill: #d62728; stroke: #d62728"/>
     <use xlink:href="#me3b9d3e658" x="476.574034" y="208.88874" style="fill: #d62728; stroke: #d62728"/>
     <use xlink:href="#me3b9d3e658" x="487.747205" y="210.487934" style="fill: #d62728; stroke: #d62728"/>
     <use xlink:href="#me3b9d3e658" x="498.920376" y="211.473488" style="fill: #d62728; stroke: #d62728"/>
     <use xlink:href="#me3b9d3e658" x="510.093546" y="214.211252" style="fill: #d62728; stroke: #d62728"/>
     <use xlink:href="#me3b9d3e658" x="521.266717" y="215.406924" style="fill: #d62728; stroke: #d62728"/>
     <use xlink:href="#me3b9d3e658" x="532.439887" y="216.835201" style="fill: #d62728; stroke: #d62728"/>
     <use xlink:href="#me3b9d3e658" x="543.613058" y="218.848891" style="fill: #d62728; stroke: #d62728"/>
     <use xlink:href="#me3b9d3e658" x="554.786228" y="220.566409" style="fill: #d62728; stroke: #d62728"/>
     <use xlink:href="#me3b9d3e658" x="565.959399" y="222.014206" style="fill: #d62728; stroke: #d62728"/>
     <use xlink:href="#me3b9d3e658" x="577.13257" y="223.795347" style="fill: #d62728; stroke: #d62728"/>
     <use xlink:href="#me3b9d3e658" x="588.30574" y="225.4839" style="fill: #d62728; stroke: #d62728"/>
     <use xlink:href="#me3b9d3e658" x="599.478911" y="226.602916" style="fill: #d62728; stroke: #d62728"/>
     <use xlink:href="#me3b9d3e658" x="610.652081" y="228.52875" style="fill: #d62728; stroke: #d62728"/>
     <use xlink:href="#me3b9d3e658" x="621.825252" y="229.472389" style="fill: #d62728; stroke: #d62728"/>
    </g>
   </g>
   <g id="patch_3">
    <path d="M 46.965625 330.84327 
L 46.965625 22.318125 
" style="fill: none; stroke: #000000; stroke-width: 0.8; stroke-linejoin: miter; stroke-linecap: square"/>
   </g>
   <g id="patch_4">
    <path d="M 649.19952 330.84327 
L 649.19952 22.318125 
" style="fill: none; stroke: #000000; stroke-width: 0.8; stroke-linejoin: miter; stroke-linecap: square"/>
   </g>
   <g id="patch_5">
    <path d="M 46.965625 330.84327 
L 649.19952 330.84327 
" style="fill: none; stroke: #000000; stroke-width: 0.8; stroke-linejoin: miter; stroke-linecap: square"/>
   </g>
   <g id="patch_6">
    <path d="M 46.965625 22.318125 
L 649.19952 22.318125 
" style="fill: none; stroke: #000000; stroke-width: 0.8; stroke-linejoin: miter; stroke-linecap: square"/>
   </g>
   <g id="text_24">
    <!-- Luck's effect / Competitiveness -->
    <g transform="translate(254.259447 16.318125)scale(0.12 -0.12)">
     <defs>
      <path id="DejaVuSans-66" d="M 2375 4863 
L 2375 4384 
L 1825 4384 
Q 1516 4384 1395 4259 
Q 1275 4134 1275 3809 
L 1275 3500 
L 2222 3500 
L 2222 3053 
L 1275 3053 
L 1275 0 
L 697 0 
L 697 3053 
L 147 3053 
L 147 3500 
L 697 3500 
L 697 3744 
Q 697 4328 969 4595 
Q 1241 4863 1831 4863 
L 2375 4863 
z
" transform="scale(0.015625)"/>
      <path id="DejaVuSans-2f" d="M 1625 4666 
L 2156 4666 
L 531 -594 
L 0 -594 
L 1625 4666 
z
" transform="scale(0.015625)"/>
      <path id="DejaVuSans-43" d="M 4122 4306 
L 4122 3641 
Q 3803 3938 3442 4084 
Q 3081 4231 2675 4231 
Q 1875 4231 1450 3742 
Q 1025 3253 1025 2328 
Q 1025 1406 1450 917 
Q 1875 428 2675 428 
Q 3081 428 3442 575 
Q 3803 722 4122 1019 
L 4122 359 
Q 3791 134 3420 21 
Q 3050 -91 2638 -91 
Q 1578 -91 968 557 
Q 359 1206 359 2328 
Q 359 3453 968 4101 
Q 1578 4750 2638 4750 
Q 3056 4750 3426 4639 
Q 3797 4528 4122 4306 
z
" transform="scale(0.015625)"/>
      <path id="DejaVuSans-6d" d="M 3328 2828 
Q 3544 3216 3844 3400 
Q 4144 3584 4550 3584 
Q 5097 3584 5394 3201 
Q 5691 2819 5691 2113 
L 5691 0 
L 5113 0 
L 5113 2094 
Q 5113 2597 4934 2840 
Q 4756 3084 4391 3084 
Q 3944 3084 3684 2787 
Q 3425 2491 3425 1978 
L 3425 0 
L 2847 0 
L 2847 2094 
Q 2847 2600 2669 2842 
Q 2491 3084 2119 3084 
Q 1678 3084 1418 2786 
Q 1159 2488 1159 1978 
L 1159 0 
L 581 0 
L 581 3500 
L 1159 3500 
L 1159 2956 
Q 1356 3278 1631 3431 
Q 1906 3584 2284 3584 
Q 2666 3584 2933 3390 
Q 3200 3197 3328 2828 
z
" transform="scale(0.015625)"/>
      <path id="DejaVuSans-76" d="M 191 3500 
L 800 3500 
L 1894 563 
L 2988 3500 
L 3597 3500 
L 2284 0 
L 1503 0 
L 191 3500 
z
" transform="scale(0.015625)"/>
     </defs>
     <use xlink:href="#DejaVuSans-4c"/>
     <use xlink:href="#DejaVuSans-75" x="53.962891"/>
     <use xlink:href="#DejaVuSans-63" x="117.341797"/>
     <use xlink:href="#DejaVuSans-6b" x="172.322266"/>
     <use xlink:href="#DejaVuSans-27" x="230.232422"/>
     <use xlink:href="#DejaVuSans-73" x="257.722656"/>
     <use xlink:href="#DejaVuSans-20" x="309.822266"/>
     <use xlink:href="#DejaVuSans-65" x="341.609375"/>
     <use xlink:href="#DejaVuSans-66" x="403.132812"/>
     <use xlink:href="#DejaVuSans-66" x="438.337891"/>
     <use xlink:href="#DejaVuSans-65" x="473.542969"/>
     <use xlink:href="#DejaVuSans-63" x="535.066406"/>
     <use xlink:href="#DejaVuSans-74" x="590.046875"/>
     <use xlink:href="#DejaVuSans-20" x="629.255859"/>
     <use xlink:href="#DejaVuSans-2f" x="661.042969"/>
     <use xlink:href="#DejaVuSans-20" x="694.734375"/>
     <use xlink:href="#DejaVuSans-43" x="726.521484"/>
     <use xlink:href="#DejaVuSans-6f" x="796.345703"/>
     <use xlink:href="#DejaVuSans-6d" x="857.527344"/>
     <use xlink:href="#DejaVuSans-70" x="954.939453"/>
     <use xlink:href="#DejaVuSans-65" x="1018.416016"/>
     <use xlink:href="#DejaVuSans-74" x="1079.939453"/>
     <use xlink:href="#DejaVuSans-69" x="1119.148438"/>
     <use xlink:href="#DejaVuSans-74" x="1146.931641"/>
     <use xlink:href="#DejaVuSans-69" x="1186.140625"/>
     <use xlink:href="#DejaVuSans-76" x="1213.923828"/>
     <use xlink:href="#DejaVuSans-65" x="1273.103516"/>
     <use xlink:href="#DejaVuSans-6e" x="1334.626953"/>
     <use xlink:href="#DejaVuSans-65" x="1398.005859"/>
     <use xlink:href="#DejaVuSans-73" x="1459.529297"/>
     <use xlink:href="#DejaVuSans-73" x="1511.628906"/>
    </g>
   </g>
   <g id="legend_1">
    <g id="patch_7">
     <path d="M 512.197957 89.030625 
L 642.19952 89.030625 
Q 644.19952 89.030625 644.19952 87.030625 
L 644.19952 29.318125 
Q 644.19952 27.318125 642.19952 27.318125 
L 512.197957 27.318125 
Q 510.197957 27.318125 510.197957 29.318125 
L 510.197957 87.030625 
Q 510.197957 89.030625 512.197957 89.030625 
z
" style="fill: #ffffff; opacity: 0.8; stroke: #cccccc; stroke-linejoin: miter"/>
    </g>
    <g id="line2d_47">
     <path d="M 514.197957 35.416562 
L 524.197957 35.416562 
L 534.197957 35.416562 
" style="fill: none; stroke: #1f77b4; stroke-width: 1.5; stroke-linecap: square"/>
     <g>
      <use xlink:href="#m8e0dc349dc" x="524.197957" y="35.416562" style="fill: #1f77b4; stroke: #1f77b4"/>
     </g>
    </g>
    <g id="text_25">
     <!-- Luck Weight = 1% -->
     <g transform="translate(542.197957 38.916562)scale(0.1 -0.1)">
      <defs>
       <path id="DejaVuSans-3d" d="M 678 2906 
L 4684 2906 
L 4684 2381 
L 678 2381 
L 678 2906 
z
M 678 1631 
L 4684 1631 
L 4684 1100 
L 678 1100 
L 678 1631 
z
" transform="scale(0.015625)"/>
      </defs>
      <use xlink:href="#DejaVuSans-4c"/>
      <use xlink:href="#DejaVuSans-75" x="53.962891"/>
      <use xlink:href="#DejaVuSans-63" x="117.341797"/>
      <use xlink:href="#DejaVuSans-6b" x="172.322266"/>
      <use xlink:href="#DejaVuSans-20" x="230.232422"/>
      <use xlink:href="#DejaVuSans-57" x="262.019531"/>
      <use xlink:href="#DejaVuSans-65" x="355.021484"/>
      <use xlink:href="#DejaVuSans-69" x="416.544922"/>
      <use xlink:href="#DejaVuSans-67" x="444.328125"/>
      <use xlink:href="#DejaVuSans-68" x="507.804688"/>
      <use xlink:href="#DejaVuSans-74" x="571.183594"/>
      <use xlink:href="#DejaVuSans-20" x="610.392578"/>
      <use xlink:href="#DejaVuSans-3d" x="642.179688"/>
      <use xlink:href="#DejaVuSans-20" x="725.96875"/>
      <use xlink:href="#DejaVuSans-31" x="757.755859"/>
      <use xlink:href="#DejaVuSans-25" x="821.378906"/>
     </g>
    </g>
    <g id="line2d_48">
     <path d="M 514.197957 50.094687 
L 524.197957 50.094687 
L 534.197957 50.094687 
" style="fill: none; stroke: #ff7f0e; stroke-width: 1.5; stroke-linecap: square"/>
     <g>
      <use xlink:href="#m5e8d930973" x="524.197957" y="50.094687" style="fill: #ff7f0e; stroke: #ff7f0e"/>
     </g>
    </g>
    <g id="text_26">
     <!-- Luck Weight = 5% -->
     <g transform="translate(542.197957 53.594687)scale(0.1 -0.1)">
      <use xlink:href="#DejaVuSans-4c"/>
      <use xlink:href="#DejaVuSans-75" x="53.962891"/>
      <use xlink:href="#DejaVuSans-63" x="117.341797"/>
      <use xlink:href="#DejaVuSans-6b" x="172.322266"/>
      <use xlink:href="#DejaVuSans-20" x="230.232422"/>
      <use xlink:href="#DejaVuSans-57" x="262.019531"/>
      <use xlink:href="#DejaVuSans-65" x="355.021484"/>
      <use xlink:href="#DejaVuSans-69" x="416.544922"/>
      <use xlink:href="#DejaVuSans-67" x="444.328125"/>
      <use xlink:href="#DejaVuSans-68" x="507.804688"/>
      <use xlink:href="#DejaVuSans-74" x="571.183594"/>
      <use xlink:href="#DejaVuSans-20" x="610.392578"/>
      <use xlink:href="#DejaVuSans-3d" x="642.179688"/>
      <use xlink:href="#DejaVuSans-20" x="725.96875"/>
      <use xlink:href="#DejaVuSans-35" x="757.755859"/>
      <use xlink:href="#DejaVuSans-25" x="821.378906"/>
     </g>
    </g>
    <g id="line2d_49">
     <path d="M 514.197957 64.772812 
L 524.197957 64.772812 
L 534.197957 64.772812 
" style="fill: none; stroke: #2ca02c; stroke-width: 1.5; stroke-linecap: square"/>
     <g>
      <use xlink:href="#m739984b3dd" x="524.197957" y="64.772812" style="fill: #2ca02c; stroke: #2ca02c"/>
     </g>
    </g>
    <g id="text_27">
     <!-- Luck Weight = 10% -->
     <g transform="translate(542.197957 68.272812)scale(0.1 -0.1)">
      <use xlink:href="#DejaVuSans-4c"/>
      <use xlink:href="#DejaVuSans-75" x="53.962891"/>
      <use xlink:href="#DejaVuSans-63" x="117.341797"/>
      <use xlink:href="#DejaVuSans-6b" x="172.322266"/>
      <use xlink:href="#DejaVuSans-20" x="230.232422"/>
      <use xlink:href="#DejaVuSans-57" x="262.019531"/>
      <use xlink:href="#DejaVuSans-65" x="355.021484"/>
      <use xlink:href="#DejaVuSans-69" x="416.544922"/>
      <use xlink:href="#DejaVuSans-67" x="444.328125"/>
      <use xlink:href="#DejaVuSans-68" x="507.804688"/>
      <use xlink:href="#DejaVuSans-74" x="571.183594"/>
      <use xlink:href="#DejaVuSans-20" x="610.392578"/>
      <use xlink:href="#DejaVuSans-3d" x="642.179688"/>
      <use xlink:href="#DejaVuSans-20" x="725.96875"/>
      <use xlink:href="#DejaVuSans-31" x="757.755859"/>
      <use xlink:href="#DejaVuSans-30" x="821.378906"/>
      <use xlink:href="#DejaVuSans-25" x="885.001953"/>
     </g>
    </g>
    <g id="line2d_50">
     <path d="M 514.197957 79.450937 
L 524.197957 79.450937 
L 534.197957 79.450937 
" style="fill: none; stroke: #d62728; stroke-width: 1.5; stroke-linecap: square"/>
     <g>
      <use xlink:href="#me3b9d3e658" x="524.197957" y="79.450937" style="fill: #d62728; stroke: #d62728"/>
     </g>
    </g>
    <g id="text_28">
     <!-- Luck Weight = 20% -->
     <g transform="translate(542.197957 82.950937)scale(0.1 -0.1)">
      <use xlink:href="#DejaVuSans-4c"/>
      <use xlink:href="#DejaVuSans-75" x="53.962891"/>
      <use xlink:href="#DejaVuSans-63" x="117.341797"/>
      <use xlink:href="#DejaVuSans-6b" x="172.322266"/>
      <use xlink:href="#DejaVuSans-20" x="230.232422"/>
      <use xlink:href="#DejaVuSans-57" x="262.019531"/>
      <use xlink:href="#DejaVuSans-65" x="355.021484"/>
      <use xlink:href="#DejaVuSans-69" x="416.544922"/>
      <use xlink:href="#DejaVuSans-67" x="444.328125"/>
      <use xlink:href="#DejaVuSans-68" x="507.804688"/>
      <use xlink:href="#DejaVuSans-74" x="571.183594"/>
      <use xlink:href="#DejaVuSans-20" x="610.392578"/>
      <use xlink:href="#DejaVuSans-3d" x="642.179688"/>
      <use xlink:href="#DejaVuSans-20" x="725.96875"/>
      <use xlink:href="#DejaVuSans-32" x="757.755859"/>
      <use xlink:href="#DejaVuSans-30" x="821.378906"/>
      <use xlink:href="#DejaVuSans-25" x="885.001953"/>
     </g>
    </g>
   </g>
  </g>
 </g>
 <defs>
  <clipPath id="p021853ea00">
   <rect x="46.965625" y="22.318125" width="602.233895" height="308.525145"/>
  </clipPath>
 </defs>
</svg>
